<?xml version="1.0" encoding="utf-8"?>
<svg version="1.1" id="Layer_1" x="0px" y="0px" width="100%" viewBox="0 0 800 600" enable-background="new 0 0 800 600" xmlns="http://www.w3.org/2000/svg">
  <path fill="#F8B81F" opacity="1.000000" stroke="none" d=" M402.838745,352.843903 C391.620148,344.666229 383.286102,334.005371 376.445557,322.078918 C375.385345,320.230438 374.601013,318.223724 373.551941,315.999390 C368.142334,319.044434 363.104004,321.935760 359.974426,327.794556 C356.543823,334.216797 352.046631,340.069305 347.491943,346.580444 C343.052338,346.990784 339.135040,346.990784 334.893799,346.990784 C334.893799,305.043365 334.893799,263.736298 334.893799,221.843033 C327.792694,221.843033 321.027435,221.843033 314.262146,221.843033 C311.966370,218.659836 309.788513,215.380692 307.315521,212.341690 C306.355713,211.162170 304.841827,210.209381 303.388550,209.690384 C289.646454,204.782639 275.447113,202.074341 260.864868,202.067322 C256.250244,202.065094 253.745453,200.307968 253.228668,196.152298 C252.227310,188.100235 248.821365,182.414810 240.880661,179.138321 C237.871140,177.896530 235.605759,174.161621 233.711075,171.120773 C232.127731,168.579620 230.476959,167.621811 227.659714,168.115631 C226.198364,168.371765 224.673843,168.254135 223.203644,168.476044 C219.848450,168.982529 218.658691,167.078766 218.407867,164.221664 C218.116272,160.899704 220.629761,161.100845 222.780914,160.913620 C224.583405,160.756729 226.386826,160.610611 228.518921,160.432190 C228.725220,158.939926 228.915237,157.565353 229.092880,156.280334 C233.898590,155.442429 238.685699,157.303741 243.045319,154.267105 C243.939392,153.644363 247.313293,154.993988 248.221176,156.332092 C249.782898,158.633865 251.270172,159.336136 253.935425,159.022354 C257.228790,158.634628 260.594879,158.907913 263.909210,158.642395 C266.904785,158.402420 269.705536,158.397522 271.516571,154.706299 C273.356171,150.956802 285.466614,149.940018 288.646088,152.916504 C289.794098,153.991211 289.958923,156.116165 290.831146,158.455841 C291.855560,156.518433 292.699707,154.921967 293.551453,153.311127 C297.884216,160.781021 304.456451,160.907242 315.222412,153.372925 C310.044189,149.573502 308.396576,144.573776 310.941803,138.698364 C311.507690,137.392120 313.066010,135.563492 314.131439,135.587219 C319.352966,135.703568 321.085052,132.385269 321.831024,128.268845 C322.986206,121.894203 323.889832,115.468582 324.715820,109.040901 C326.060669,98.575233 330.691071,91.271484 341.702240,88.479271 C351.086609,86.099586 359.749146,85.917374 367.859467,91.931114 C374.613617,96.939255 376.142792,104.558754 377.808075,111.993332 C379.523773,119.652824 382.659119,126.447754 388.083221,132.148193 C392.301270,136.581177 394.343414,141.919006 394.290710,147.976547 C394.233276,154.578186 392.270813,156.471466 385.629120,157.070206 C384.749054,157.149551 383.920197,157.796661 382.068695,158.630981 C388.554260,162.934464 392.356903,168.640442 400.587128,170.167862 C427.368896,175.138199 453.926636,181.334839 480.521912,187.277451 C487.330566,188.798798 490.839020,191.598907 495.844818,198.125031 C457.762024,188.419647 420.713745,179.056091 382.421906,174.543777 C386.493195,185.923752 385.785187,197.173828 385.185272,208.302185 C384.785614,215.716202 382.903992,223.039444 382.225525,230.452713 C381.663971,236.588531 382.724640,242.136215 388.680511,246.118439 C393.612823,249.416290 397.766479,253.878738 402.633240,258.393982 C402.885193,261.023346 402.665619,263.084045 402.668396,265.144409 C402.707520,294.377594 402.776764,323.610748 402.838745,352.843903 M318.503479,139.318817 C316.701447,140.192444 313.319458,141.175964 313.371246,141.920639 C313.593781,145.119553 314.825745,148.248260 315.925476,152.262375 C318.371918,149.250946 319.513733,146.712891 321.454926,145.686188 C325.813812,143.380737 325.429382,140.701614 323.166260,136.960999 C321.758270,137.729492 320.503387,138.414413 318.503479,139.318817 M316.062714,187.698212 C317.104858,184.982407 318.147003,182.266617 319.608032,178.459213 C315.391144,180.263367 312.660187,181.424805 309.934998,182.599640 C307.084930,183.828293 304.240479,185.069809 301.393555,186.305695 C301.425079,186.682465 301.456573,187.059235 301.488068,187.436005 C306.202881,187.744583 310.917664,188.053162 316.062714,187.698212 M255.544327,173.877121 C261.974884,175.280380 264.460510,169.724808 269.023682,166.649567 C263.676361,166.649567 259.031250,166.649567 253.518204,166.649567 C254.010544,169.441666 254.403656,171.671036 255.544327,173.877121 M384.670776,148.006683 C385.641632,150.472595 386.612457,152.938507 387.872650,156.139343 C391.989014,150.212006 391.952881,145.706055 389.120392,141.720566 C387.918976,143.488541 386.559814,145.488602 384.670776,148.006683 z"/>
  <path fill="#000000" opacity="1.000000" stroke="none" d=" M644.992981,222.000107 C649.806396,222.000107 654.121521,222.000107 658.708130,222.000107 C662.295471,246.212753 665.855896,270.243866 669.483826,294.730438 C672.767395,270.371643 675.996094,246.419769 679.256287,222.234558 C695.986450,222.234558 712.740784,222.234558 729.748047,222.234558 C729.748047,274.023987 729.748047,325.758759 729.748047,377.746918 C718.310730,377.746918 706.906006,377.746918 695.059082,377.746918 C695.059082,342.967834 695.059082,308.225677 695.059082,273.483490 C694.848328,273.476013 694.637573,273.468506 694.426819,273.460999 C689.958374,308.218201 685.489868,342.975433 681.007690,377.839172 C672.984436,377.839172 665.351685,377.839172 656.987061,377.839172 C652.545044,343.874878 648.086304,309.782013 643.627502,275.689148 C643.487610,275.687469 643.347778,275.685791 643.207886,275.684113 C643.207886,309.595825 643.207886,343.507568 643.207886,377.708740 C631.389282,377.708740 619.983704,377.708740 608.287964,377.708740 C608.287964,326.048523 608.287964,274.313599 608.287964,222.000107 C620.302551,222.000107 632.398682,222.000107 644.992981,222.000107 z"/>
  <path fill="#000000" opacity="1.000000" stroke="none" d=" M158.548706,377.986511 C145.268417,377.998291 132.447906,377.998291 119.412254,377.998291 C114.132347,356.422699 108.880615,334.962219 103.628883,313.501709 C103.435600,313.516724 103.242310,313.531708 103.049026,313.546692 C103.049026,334.879028 103.049026,356.211334 103.049026,377.769897 C89.930252,377.769897 77.192650,377.769897 64.227097,377.769897 C64.227097,325.926178 64.227097,274.191681 64.227097,222.228516 C77.073082,222.228516 89.810646,222.228516 102.902542,222.228516 C102.902542,241.732361 102.902542,261.127228 102.902542,280.522095 C103.139923,280.557892 103.377296,280.593719 103.614677,280.629517 C109.516075,261.215027 115.417473,241.800522 121.383278,222.174133 C133.324097,222.174133 145.453690,222.174133 158.294632,222.174133 C155.654266,230.605530 153.118851,238.782257 150.532593,246.942871 C145.883484,261.612549 140.730270,276.148804 136.844788,291.017090 C135.771744,295.123169 138.149643,300.287140 139.434219,304.827057 C146.071915,328.285889 152.882065,351.695862 159.554718,375.144897 C159.789413,375.969574 159.209000,377.026215 158.548706,377.986511 z"/>
  <path fill="#000000" opacity="1.000000" stroke="none" d=" M402.910797,353.322205 C402.776764,323.610748 402.707520,294.377594 402.668396,265.144409 C402.665619,263.084045 402.885193,261.023346 402.920746,258.562439 C402.840088,246.351196 402.840088,234.540344 402.840088,222.364838 C424.892883,222.364838 446.725677,222.364838 468.780212,222.364838 C468.780212,232.413498 468.780212,242.474197 468.780212,252.922638 C459.947021,252.922638 451.211426,252.922638 442.241943,252.922638 C442.241943,262.701263 442.241943,272.096497 442.241943,281.881592 C450.010162,281.881592 457.746887,281.881592 465.738037,281.881592 C465.738037,291.993622 465.738037,301.722046 465.738037,311.841003 C458.030731,311.841003 450.294373,311.841003 442.043304,311.841003 C442.043304,320.804932 442.043304,329.391632 442.026917,338.907532 C442.010559,352.432831 442.010559,365.028870 442.010559,378.162872 C435.054932,378.162872 428.605225,378.162872 422.155548,378.162872 C416.014221,378.162872 409.872864,378.162872 402.982849,378.162872 C402.982849,369.906128 402.982849,361.853302 402.910797,353.322205 z"/>
  <path fill="#F8B81F" opacity="1.000000" stroke="none" d=" M422.342224,378.439087 C428.605225,378.162872 435.054932,378.162872 442.010559,378.162872 C442.010559,365.028870 442.010559,352.432831 442.089111,339.365967 C446.551788,346.066956 450.935852,353.238770 454.752533,359.482361 C457.248383,361.127808 459.032440,362.476471 460.975220,363.533386 C462.709259,364.476807 464.684937,364.971222 466.437286,365.887054 C470.362518,367.938568 474.215149,370.129059 478.548340,372.729797 C479.071014,374.721771 479.142670,376.246887 479.217590,377.841064 C481.479156,377.964050 483.375275,378.067169 485.271362,378.170288 C497.646973,391.144836 510.181671,403.972717 522.335632,417.151764 C529.083740,424.468964 535.277893,432.306946 541.511719,440.078583 C542.504089,441.315796 543.298828,444.112579 542.619202,445.035919 C540.270447,448.227020 542.463623,449.863342 544.206421,451.679810 C547.806030,455.431580 550.700134,459.799438 556.634460,460.940155 C559.268188,461.446442 562.001587,464.443542 560.213867,468.441711 C559.850830,469.253571 559.698242,470.535706 560.088928,471.251617 C565.405151,480.993256 567.076599,492.551849 575.653870,500.742432 C579.599121,504.509827 576.377808,511.513458 570.841003,512.101440 C563.413086,512.890198 555.950378,513.348328 548.504883,513.974792 C545.533569,514.224670 543.705322,513.116516 543.348022,509.983093 C542.858948,505.694336 542.134705,501.424255 541.842041,497.123627 C541.580750,493.283386 540.185669,490.298737 536.505066,488.956390 C526.781006,485.409943 524.462158,478.194061 525.670471,468.708679 C526.083069,465.469727 525.187866,462.064209 524.812012,457.859528 C520.422180,459.624603 517.297241,461.057892 514.055237,462.140717 C509.810547,463.558411 505.526886,464.943756 501.162720,465.898621 C495.478668,467.142334 492.478821,465.568451 490.132690,460.254822 C486.246887,451.454132 481.714050,442.817230 478.985565,433.655151 C474.563751,418.806824 464.243378,409.268402 452.597015,400.401978 C447.241486,396.324768 442.313782,391.684021 437.219299,387.267426 C436.602814,386.733002 436.184418,385.473022 435.627502,385.443909 C430.217224,385.161346 426.068329,382.563477 422.342224,378.439087 z"/>
  <path fill="#000000" opacity="1.000000" stroke="none" d=" M278.439178,378.149902 C260.141846,378.149902 241.844543,378.149902 223.274292,378.149902 C223.274292,326.031677 223.274292,274.307495 223.274292,222.291473 C235.941330,222.291473 248.677399,222.291473 261.799255,222.291473 C261.799255,263.600739 261.799255,304.995819 261.799255,346.793640 C269.907837,346.793640 277.652527,346.793640 286.037109,346.793640 C286.037109,350.088959 286.037109,353.014923 286.026550,356.862061 C286.015991,364.482605 286.015991,371.182007 286.015991,378.149902 C283.044128,378.149902 280.741638,378.149902 278.439178,378.149902 z"/>
  <path fill="#000000" opacity="1.000000" stroke="none" d=" M535.000061,279.000000 C535.000061,259.858429 535.000061,241.216858 535.000061,222.288116 C547.950256,222.288116 560.688232,222.288116 573.821594,222.288116 C573.821594,263.619904 573.821594,305.021515 573.821594,346.821472 C581.943481,346.821472 589.688538,346.821472 597.713745,346.821472 C597.713745,357.286652 597.713745,367.358490 597.713745,377.716309 C577.040161,377.716309 556.303711,377.716309 535.000061,377.716309 C535.000061,345.016998 535.000061,312.258514 535.000061,279.000000 z"/>
  <path fill="#000000" opacity="1.000000" stroke="none" d=" M313.775024,221.915558 C321.027435,221.843033 327.792694,221.843033 334.893799,221.843033 C334.893799,263.736298 334.893799,305.043365 334.893799,346.990784 C339.135040,346.990784 343.052338,346.990784 347.416992,346.914551 C351.347778,346.838318 354.831299,346.838318 358.657349,346.838318 C358.657349,357.242493 358.657349,367.417542 358.657349,378.011566 C346.365356,378.011566 334.115997,378.011566 320.942505,378.012939 C312.109161,378.014282 304.199951,378.014282 295.838348,378.014282 C295.838348,364.002350 295.838348,350.582397 295.838348,337.162445 C295.892273,304.345367 295.947357,271.528320 295.998932,238.711243 C296.007294,233.381882 296.000092,228.052505 296.000092,221.988068 C301.790741,221.988068 307.539337,221.988068 313.775024,221.915558 z"/>
  <path fill="#000000" opacity="1.000000" stroke="none" d=" M167.000107,276.000000 C167.000107,257.857758 167.000107,240.215485 167.000107,222.287109 C179.952759,222.287109 192.691040,222.287109 205.715607,222.287109 C205.715607,273.957703 205.715607,325.691528 205.715607,377.712891 C193.047256,377.712891 180.308960,377.712891 167.000107,377.712891 C167.000107,344.018707 167.000107,310.259369 167.000107,276.000000 z"/>
  <path fill="#000000" opacity="1.000000" stroke="none" d=" M485.714691,378.102478 C483.375275,378.067169 481.479156,377.964050 479.217590,377.841064 C479.142670,376.246887 479.071014,374.721771 478.925842,372.798920 C478.901581,330.103058 478.952118,287.804932 478.998840,245.506821 C479.007294,237.866257 479.000092,230.225662 479.000092,222.293213 C491.934357,222.293213 504.667236,222.293213 517.700989,222.293213 C517.700989,273.905060 517.700989,325.616180 517.700989,378.034637 C507.313293,378.034637 496.735657,378.034637 485.714691,378.102478 z"/>
  <path fill="#F8B81F" opacity="1.000000" stroke="none" d=" M295.579865,337.363403 C295.838348,350.582397 295.838348,364.002350 295.838348,378.014282 C304.199951,378.014282 312.109161,378.014282 320.475128,378.089630 C316.886475,384.986084 312.397675,391.595764 308.998352,398.724915 C307.487152,401.894257 308.568604,406.201996 307.738068,409.824432 C307.067993,412.746796 305.303894,415.420654 304.005341,418.195496 C303.451538,419.378815 302.252472,420.596191 302.359467,421.699921 C303.261780,431.008026 301.208557,440.587708 306.140930,449.537079 C310.609833,457.645569 309.127533,462.809692 302.058929,468.835236 C300.291199,470.342133 298.389618,471.707306 296.463562,473.010620 C288.542480,478.370789 283.261536,485.466766 281.351715,495.001556 C279.832855,502.584320 278.181519,504.309906 270.776672,504.959442 C264.179901,505.538147 257.485443,505.829559 250.904709,505.325653 C248.547897,505.145203 245.615753,502.719910 244.341263,500.513428 C242.553223,497.417816 244.377762,494.313812 247.281830,492.432281 C249.346802,491.094421 251.723465,490.224121 253.994064,489.219879 C259.048676,486.984375 259.776001,484.103973 259.761902,478.626709 C259.747925,473.202148 261.578644,467.772827 262.777832,461.402313 C263.192139,462.192261 263.114105,461.749573 262.882233,461.643616 C252.666290,456.975159 253.291336,454.573181 254.326645,441.561127 C254.840088,435.108246 256.439606,428.968903 260.765289,423.240662 C264.394836,418.434326 265.604126,411.722900 267.550323,405.746002 C269.255157,400.510193 270.107971,394.975189 272.065887,389.850739 C273.546692,385.975098 276.176178,382.538300 278.366821,378.528076 C280.741638,378.149902 283.044128,378.149902 286.015991,378.149902 C286.015991,371.182007 286.015991,364.482605 286.091919,357.307800 C289.218994,350.409698 292.270203,343.987061 295.579865,337.363403 z"/>
</svg>