<svg width="64" height="60" viewBox="0 0 64 60" fill="none" xmlns="http://www.w3.org/2000/svg">
<path d="M2.0586 1.02657C0.959379 1.50235 0.335942 2.74923 0.582035 4.02891C0.680473 4.58673 2.35391 6.30938 15.725 19.6969C32.082 36.0539 31.0484 35.1352 32.6234 34.8399C33.1648 34.7414 34.8875 33.068 48.275 19.6969C64.632 3.33985 63.7133 4.35704 63.418 2.81485C63.2703 2.01094 62.2859 1.02657 61.482 0.878914C59.9398 0.583601 60.8422 -0.203899 45.8141 14.7914L32 28.6055L18.2516 14.8734C10.5406 7.16251 4.32266 1.05938 4.06016 0.960945C3.43672 0.731257 2.66563 0.76407 2.0586 1.02657Z" fill="#045A8D"/>
<path d="M2.0586 25.3078C0.959379 25.7836 0.335942 27.0305 0.582035 28.3102C0.680473 28.868 2.35391 30.5906 15.725 43.9781C32.082 60.3352 31.0484 59.4164 32.6234 59.1211C33.1648 59.0227 34.8875 57.3492 48.275 43.9781C64.632 27.6211 63.7133 28.6383 63.418 27.0961C63.2703 26.2922 62.2859 25.3078 61.482 25.1602C59.9399 24.8649 60.8422 24.0774 45.8141 39.0727L32 52.8867L18.2516 39.1547C10.5406 31.4438 4.32266 25.3406 4.06016 25.2422C3.43672 25.0125 2.66563 25.0453 2.0586 25.3078Z" fill="#045A8D"/>
</svg>
