<?xml version="1.0" encoding="utf-8"?>
<svg viewBox="63.709 0 1287.261 742.144" width="1287.261px" height="742.144px" xmlns="http://www.w3.org/2000/svg">
  <defs>
    <style>
                @keyframes float1 {
                    0%{transform: translate(0, 0)}
                    50%{transform: translate(-10px, 0)}
                    100%{transform: translate(0, 0)}
                }

                .triangle-float1 {
                    animation: float1 5s infinite;
                }

                @keyframes float2 {
                    0%{transform: translate(0, 0)}
                    50%{transform: translate(-5px, -5px)}
                    100%{transform: translate(0, 0)}
                }

                .triangle-float2 {
                    animation: float2 4s infinite;
                }

                @keyframes float3 {
                    0%{transform: translate(0, 0)}
                    50%{transform: translate(0, -10px)}
                    100%{transform: translate(0, 0)}
                }

                .triangle-float3 {
                    animation: float3 6s infinite;
                }
            </style>
  </defs>
  <path d="M440.389,449.411C461.868,449.115,482.389,437.539,491.797,418.228C500.318,400.738,491.013,381.779,481.647,364.727C471.752,346.712,460.928,325.43,440.389,324.633C419.052,323.805,403.721,342.722,393.184,361.294C382.823,379.557,376.55,401.172,386.465,419.681C396.853,439.073,418.392,449.714,440.389,449.411" fill="rgba(43, 140, 190, 1)" class="triangle-float3" transform="matrix(1, 0, 0, 1, -2.842170943040401e-14, -3.7133567333221293)"/>
  <path d="M1246.484,559.937C1266.016,558.325,1282.869,548.438,1293.791,532.166C1306.438,513.323,1317.451,490.066,1306.849,470.001C1295.786,449.064,1270.16,442.177,1246.484,442.631C1223.704,443.068,1202.278,453.049,1190.002,472.243C1176.653,493.115,1169.98,520.447,1183.396,541.276C1196.123,561.036,1223.06,561.87,1246.484,559.937" fill="rgba(43, 140, 190, 1)" class="triangle-float1" transform="matrix(1, 0, 0, 1, -0.22048658132555943, 1.4210854715202004e-14)"/>
  <path d="M896.668,113.823C925.726,113.277,951.888,97.586,966.833,72.66C982.245,46.956,987.197,14.479,971.567,-11.093C956.461,-35.808,925.606,-43.399,896.668,-42.135C870.147,-40.977,846.57,-27.397,832.304,-5.01C816.737,19.42,807.983,49.915,821.779,75.387C836.101,101.83,866.6,114.388,896.668,113.823" fill="rgba(43, 140, 190, 1)" class="triangle-float1" transform="matrix(1, 0, 0, 1, -0.22048658132555943, 1.4210854715202004e-14)"/>
  <path d="M962.479,537.048C1010.067,536.329,1051.707,510.162,1077.802,470.361C1107.165,425.575,1129.199,369.356,1103.073,322.607C1076.526,275.105,1016.895,264.341,962.479,264.011C907.306,263.676,846.54,273.133,818.898,320.883C791.22,368.697,810.387,427.921,840.955,473.941C868.022,514.692,913.564,537.787,962.479,537.048" fill="rgba(43, 140, 190, 1)" class="triangle-float2" transform="matrix(1, 0, 0, 1, -0.14965301752090454, -0.14965301752090454)"/>
  <path d="M603.309,736.102C658.02,736.127,699.81,693.763,727.595,646.633C755.938,598.557,775.85,539.699,747.406,491.682C719.331,444.287,658.346,434.51,603.309,436.822C552.97,438.937,504.417,459.607,478.758,502.967C452.639,547.105,455.049,601.286,479.216,646.522C504.981,694.75,548.63,736.078,603.309,736.102" fill="rgba(43, 140, 190, 1)" class="triangle-float1" transform="matrix(1, 0, 0, 1, -0.22048658132555943, 1.4210854715202004e-14)"/>
  <path d="M271.536,156.541C302.02,156.94,328.487,137.364,343.649,110.915C358.724,84.617,360.862,52.7,346.304,26.113C331.16,-1.544,303.044,-19.54,271.536,-20.783C237.677,-22.118,201.69,-10.147,185.805,19.784C170.589,48.455,185.381,81.567,202.621,109.069C218.501,134.4,241.642,156.15,271.536,156.541" fill="rgba(43, 140, 190, 1)" class="triangle-float3" transform="matrix(1, 0, 0, 1, -2.842170943040401e-14, -3.7133567333221293)"/>
  <path d="M225.847,601.206C265.501,603.529,306.432,590.514,327.909,557.099C351.043,521.106,355.011,472.893,331.143,437.382C309.203,404.739,265.135,403.416,225.847,405.247C190.661,406.887,154.193,416.133,136.282,446.464C118.119,477.222,124.692,515.33,142.586,546.245C160.441,577.093,190.265,599.122,225.847,601.206" fill="rgba(43, 140, 190, 1)" class="triangle-float1" transform="matrix(1, 0, 0, 1, -0.22048658132555943, 1.4210854715202004e-14)"/>
  <path d="M498.125,363.368C517.181,364.57,536.42,355.948,545.871,339.357C555.241,322.907,551.5,302.833,541.901,286.516C532.456,270.46,516.752,258.425,498.125,258.194C479.124,257.958,461.01,268.454,452.427,285.407C444.508,301.05,450.917,318.801,459.783,333.927C468.517,348.827,480.888,362.281,498.125,363.368" fill="rgba(43, 140, 190, 1)" class="triangle-float2" transform="matrix(1, 0, 0, 1, -0.14965301752090454, -0.14965301752090454)"/>
</svg>