<svg width="241" height="83" viewBox="0 0 241 83" fill="none" xmlns="http://www.w3.org/2000/svg">
<g clip-path="url(#clip0_39_2217)">
<path d="M141.65 22.4485C141.65 28.5657 136.848 33.0733 130.955 33.0733C125.062 33.0733 120.26 28.5657 120.26 22.4485C120.26 16.2883 125.062 11.8237 130.955 11.8237C136.848 11.8237 141.65 16.2883 141.65 22.4485ZM136.969 22.4485C136.969 18.6259 134.186 16.0104 130.955 16.0104C127.725 16.0104 124.942 18.6259 124.942 22.4485C124.942 26.2328 127.725 28.8867 130.955 28.8867C134.186 28.8867 136.969 26.2281 136.969 22.4485Z" fill="#EA4335"/>
<path d="M164.723 22.4485C164.723 28.5657 159.921 33.0733 154.028 33.0733C148.135 33.0733 143.333 28.5657 143.333 22.4485C143.333 16.293 148.135 11.8237 154.028 11.8237C159.921 11.8237 164.723 16.2883 164.723 22.4485ZM160.041 22.4485C160.041 18.6259 157.258 16.0104 154.028 16.0104C150.798 16.0104 148.015 18.6259 148.015 22.4485C148.015 26.2328 150.798 28.8867 154.028 28.8867C157.258 28.8867 160.041 26.2281 160.041 22.4485Z" fill="#FBBC05"/>
<path d="M186.834 12.4656V31.5405C186.834 39.3869 182.191 42.5916 176.701 42.5916C171.534 42.5916 168.424 39.1474 167.251 36.3307L171.327 34.6398C172.053 36.369 173.832 38.4097 176.697 38.4097C180.21 38.4097 182.388 36.2493 182.388 32.1824V30.6543H182.224C181.176 31.9428 179.158 33.0686 176.61 33.0686C171.279 33.0686 166.396 28.4412 166.396 22.4869C166.396 16.4894 171.279 11.8237 176.61 11.8237C179.153 11.8237 181.172 12.9494 182.224 14.1997H182.388V12.4704H186.834V12.4656ZM182.719 22.4869C182.719 18.7457 180.215 16.0104 177.028 16.0104C173.798 16.0104 171.092 18.7457 171.092 22.4869C171.092 26.1897 173.798 28.8867 177.028 28.8867C180.215 28.8867 182.719 26.1897 182.719 22.4869Z" fill="#4285F4"/>
<path d="M194.164 1.28467V32.4214H189.598V1.28467H194.164Z" fill="#34A853"/>
<path d="M211.959 25.9456L215.593 28.3599C214.42 30.0892 211.593 33.0687 206.71 33.0687C200.653 33.0687 196.13 28.403 196.13 22.4439C196.13 16.1255 200.692 11.8191 206.186 11.8191C211.718 11.8191 214.425 16.207 215.309 18.5782L215.795 19.7853L201.543 25.6677C202.634 27.7994 204.33 28.8868 206.71 28.8868C209.094 28.8868 210.747 27.718 211.959 25.9456ZM200.773 22.123L210.3 18.1806C209.776 16.8537 208.2 15.9291 206.344 15.9291C203.965 15.9291 200.653 18.0225 200.773 22.123Z" fill="#EA4335"/>
<path d="M102.975 19.6846V15.1769H118.217C118.367 15.9625 118.443 16.8919 118.443 17.8978C118.443 21.2797 117.516 25.4616 114.526 28.4412C111.618 31.4591 107.902 33.0686 102.98 33.0686C93.8569 33.0686 86.1853 25.6628 86.1853 16.5709C86.1853 7.47899 93.8569 0.0732422 102.98 0.0732422C108.027 0.0732422 111.623 2.04683 114.324 4.6192L111.132 7.79994C109.195 5.98922 106.571 4.58088 102.975 4.58088C96.3131 4.58088 91.1026 9.93161 91.1026 16.5709C91.1026 23.2102 96.3131 28.5609 102.975 28.5609C107.297 28.5609 109.758 26.8317 111.334 25.2605C112.613 23.9862 113.454 22.1659 113.786 19.6798L102.975 19.6846Z" fill="#4285F4"/>
<path d="M98.6943 49.8133L94.0004 62.7526H103.577L98.8457 49.8133H98.6943ZM89.95 73.9566H85.8618L96.688 45.2864H100.89L111.716 73.9566H107.628L104.864 66.1855H92.7512L89.95 73.9566Z" fill="white"/>
<path d="M113.58 54.3405H117.138V57.0567H117.289C117.838 56.1041 118.699 55.3119 119.863 54.68C121.046 54.0293 122.258 53.6992 123.497 53.6992C125.92 53.6992 127.775 54.3971 129.062 55.774C130.368 57.1321 131.03 59.0843 131.03 61.6213V73.957H127.321V61.8853C127.245 58.6694 125.627 57.0567 122.475 57.0567C121.009 57.0567 119.769 57.6602 118.766 58.8674C117.781 60.0557 117.289 61.4609 117.289 63.0925V73.957H113.58V54.3405Z" fill="white"/>
<path d="M137.877 67.9589C137.877 68.9209 138.274 69.7225 139.088 70.3732C139.893 71.0051 140.848 71.3163 141.965 71.3163C143.498 71.3163 144.88 70.7505 146.091 69.6188C147.321 68.4682 147.946 67.1101 147.946 65.5446C146.782 64.6392 145.164 64.1865 143.101 64.1865C141.606 64.1865 140.356 64.5543 139.353 65.2805C138.369 65.9878 137.877 66.8838 137.877 67.9589ZM142.647 53.6992C145.372 53.6992 147.511 54.4348 149.082 55.8872C150.672 57.349 151.466 59.3484 151.466 61.8853V73.957H147.946V71.2409H147.795C146.252 73.4855 144.208 74.5983 141.662 74.5983C139.486 74.5983 137.669 73.957 136.211 72.6744C134.773 71.3918 134.054 69.798 134.054 67.8835C134.054 65.8464 134.82 64.2431 136.363 63.0548C137.896 61.8476 139.959 61.244 142.533 61.244C144.729 61.244 146.527 61.6401 147.946 62.4135V61.5835C147.946 60.3009 147.426 59.2258 146.394 58.3393C145.381 57.4339 144.199 56.9812 142.836 56.9812C140.763 56.9812 139.136 57.8489 137.953 59.5842L134.697 57.5471C136.486 54.9818 139.136 53.6992 142.647 53.6992Z" fill="white"/>
<path d="M159.206 45.2864V73.9566H155.496V45.2864H159.206Z" fill="white"/>
<path d="M181.014 54.3406L168.674 82.5959H164.888L169.469 72.7122L161.33 54.3406H165.342L171.21 68.4494H171.286L177.001 54.3406H181.014Z" fill="white"/>
<path d="M191.175 74.2582C189.585 74.2582 188.261 73.7678 187.201 72.787C186.141 71.8062 185.592 70.4387 185.573 68.6751V57.6974H182.09V54.3399H185.573V48.3418H189.245V54.3399H194.09V57.6974H189.245V67.4679C189.245 68.7788 189.491 69.6747 190.002 70.1463C190.532 70.599 191.109 70.8253 191.743 70.8253C192.046 70.8253 192.33 70.8065 192.614 70.7499C192.888 70.6744 193.153 70.5896 193.409 70.4858L194.544 73.7678C193.579 74.0885 192.462 74.2582 191.175 74.2582Z" fill="white"/>
<path d="M202.181 47.5881C202.181 48.2954 201.916 48.9084 201.386 49.4365C200.875 49.9458 200.269 50.191 199.569 50.191C198.831 50.191 198.215 49.9458 197.714 49.4365C197.203 48.9084 196.957 48.2954 196.957 47.5881C196.957 46.8619 197.203 46.2489 197.714 45.7396C198.215 45.2397 198.831 44.9851 199.569 44.9851C200.269 44.9851 200.875 45.2397 201.386 45.7396C201.916 46.2489 202.181 46.8619 202.181 47.5881ZM201.424 54.3407V73.9572H197.714V54.3407H201.424Z" fill="white"/>
<path d="M213.885 74.5983C210.951 74.5983 208.528 73.6081 206.617 71.6181C204.724 69.6093 203.778 67.1195 203.778 64.1488C203.778 61.1309 204.724 58.6411 206.617 56.6794C208.528 54.6989 210.951 53.6992 213.885 53.6992C215.9 53.6992 217.651 54.2085 219.146 55.2082C220.632 56.2173 221.758 57.6037 222.515 59.3578L219.146 60.7536C218.105 58.2921 216.279 57.0567 213.658 57.0567C211.964 57.0567 210.497 57.7357 209.267 59.0938C208.055 60.4518 207.45 62.14 207.45 64.1488C207.45 66.167 208.055 67.8457 209.267 69.2038C210.497 70.5619 211.964 71.2409 213.658 71.2409C216.355 71.2409 218.247 70.0149 219.336 67.5439L222.629 68.9397C221.919 70.7033 220.793 72.0897 219.26 73.0894C217.717 74.0891 215.929 74.5983 213.885 74.5983Z" fill="white"/>
<path d="M240.91 68.5248C240.91 70.2412 240.153 71.6842 238.639 72.863C237.144 74.0136 235.27 74.5983 232.999 74.5983C231.031 74.5983 229.289 74.0796 227.775 73.0517C226.28 72.0237 225.21 70.6656 224.557 68.9775L227.851 67.5817C228.352 68.77 229.062 69.6848 229.971 70.3355C230.898 70.9957 231.911 71.3163 232.999 71.3163C234.182 71.3163 235.166 71.0711 235.952 70.5619C236.756 70.062 237.163 69.4584 237.163 68.7511C237.163 67.4968 236.188 66.582 234.248 65.9973L230.879 65.1673C227.037 64.1865 225.125 62.338 225.125 59.6219C225.125 57.8394 225.854 56.4059 227.321 55.3214C228.778 54.2462 230.652 53.6992 232.923 53.6992C234.664 53.6992 236.235 54.1142 237.655 54.9441C239.065 55.774 240.049 56.8869 240.608 58.2638L237.314 59.6219C236.936 58.792 236.311 58.1507 235.459 57.698C234.627 57.2264 233.69 56.9812 232.658 56.9812C231.693 56.9812 230.822 57.2264 230.046 57.698C229.289 58.1789 228.911 58.7731 228.911 59.471C228.911 60.5839 229.971 61.3855 232.09 61.8853L235.043 62.6398C238.951 63.6018 240.91 65.5634 240.91 68.5248Z" fill="white"/>
<path d="M50.9011 9.6671V70.4318C50.9011 77.2362 55.607 81.0196 60.6015 81.0196C65.2207 81.0196 70.3019 77.7972 70.3019 70.4318V10.1274C70.3019 3.89848 65.6827 0 60.6015 0C55.5204 0 50.9011 4.30128 50.9011 9.6671Z" fill="#F8AB00"/>
<path d="M25.4954 40.5096V70.4316C25.4954 77.236 30.2012 81.0194 35.1957 81.0194C39.815 81.0194 44.8961 77.797 44.8961 70.4316V40.97C44.8961 34.741 40.2769 30.8425 35.1957 30.8425C30.1146 30.8425 25.4954 35.1438 25.4954 40.5096Z" fill="#E37300"/>
<path d="M19.4904 71.3524C19.4904 76.6895 15.1455 81.0195 9.79004 81.0195C4.43462 81.0195 0.0896606 76.6895 0.0896606 71.3524C0.0896606 66.0154 4.43462 61.6853 9.79004 61.6853C15.1455 61.6853 19.4904 66.0154 19.4904 71.3524Z" fill="#E37300"/>
</g>
<defs>
<clipPath id="clip0_39_2217">
<rect width="240.821" height="82.5956" fill="white" transform="translate(0.0894775)"/>
</clipPath>
</defs>
</svg>
