<svg width="411" height="41" viewBox="0 0 411 41" fill="none" xmlns="http://www.w3.org/2000/svg">
<path fill-rule="evenodd" clip-rule="evenodd" d="M15.9964 14.4089V18.8036H26.3677C26.0162 21.2646 25.313 23.0226 24.0825 24.2531C22.5005 25.8352 20.2153 27.4173 16.1722 27.4173C9.84396 27.4173 4.7462 22.3194 4.7462 15.991C4.7462 9.66255 9.66817 4.56465 16.1722 4.56465C19.6879 4.56465 22.1489 5.97097 23.9068 7.72887L26.8951 4.74044C24.2583 2.27939 20.9184 0.345703 15.9964 0.345703C7.20719 0.345703 0 7.37728 0 16.1668C0 24.9562 7.38297 31.9878 15.9964 31.9878C20.7426 31.9878 24.2583 30.4057 27.0709 27.5931C29.8834 24.7804 30.7624 20.7373 30.7624 17.3973C30.7624 16.3426 30.7624 15.4636 30.5866 14.7604H15.9964V14.4089Z" fill="#4285F4"/>
<path fill-rule="evenodd" clip-rule="evenodd" d="M43.5947 27.2412C40.4306 27.2412 37.7938 24.6044 37.7938 21.0886C37.7938 17.397 40.4306 14.936 43.5947 14.936C46.7588 14.936 49.3956 17.397 49.3956 21.0886C49.3956 24.7802 46.7588 27.2412 43.5947 27.2412ZM43.5947 10.8928C37.9696 10.8928 33.3992 15.1118 33.3992 21.0886C33.3992 26.8897 37.9696 31.2844 43.5947 31.2844C49.2198 31.2844 53.7902 26.8897 53.7902 21.0886C53.966 15.1118 49.2198 10.8928 43.5947 10.8928Z" fill="#E94235"/>
<path fill-rule="evenodd" clip-rule="evenodd" d="M88.7714 27.2412C85.6073 27.2412 83.3221 24.6044 83.3221 21.0886C83.3221 17.5728 85.6073 14.936 88.7714 14.936C91.7597 14.936 94.2207 17.5728 94.2207 21.0886C94.2207 24.6044 91.7597 27.2412 88.7714 27.2412ZM93.8692 13.1781C92.6387 11.9476 90.705 10.8928 88.4198 10.8928C83.3221 10.8928 78.9274 15.2876 78.9274 21.0886C78.9274 26.8897 83.3221 31.2844 88.4198 31.2844C90.8808 31.2844 92.8144 30.2297 93.8692 28.9991H94.0449V30.4055C94.0449 34.2728 91.9355 36.3823 88.5956 36.3823C85.783 36.3823 84.201 34.4486 83.4978 32.6907L79.6306 34.2728C80.6853 36.9097 83.6736 40.2497 88.5956 40.2497C93.8692 40.2497 98.2638 37.0855 98.2638 29.5265V11.4202H94.0449V13.1781H93.8692Z" fill="#4285F4"/>
<path fill-rule="evenodd" clip-rule="evenodd" d="M66.4468 27.2412C63.2827 27.2412 60.6459 24.6044 60.6459 21.0886C60.6459 17.397 63.2827 14.936 66.4468 14.936C69.6109 14.936 72.2477 17.397 72.2477 21.0886C72.2477 24.7802 69.6109 27.2412 66.4468 27.2412ZM66.4468 10.8928C60.8217 10.8928 56.2513 15.1118 56.2513 21.0886C56.2513 26.8897 60.8217 31.2844 66.4468 31.2844C72.0719 31.2844 76.6423 26.8897 76.6423 21.0886C76.8181 15.1118 72.0719 10.8928 66.4468 10.8928Z" fill="#FBBC04"/>
<path fill-rule="evenodd" clip-rule="evenodd" d="M101.604 31.2847H105.998V0.345703H101.604V31.2847Z" fill="#34A853"/>
<path fill-rule="evenodd" clip-rule="evenodd" d="M119.358 14.7604C121.116 14.7604 122.698 15.6394 123.225 17.0457L114.084 20.9131C114.084 16.5183 117.073 14.7604 119.358 14.7604ZM119.71 27.2415C117.424 27.2415 115.842 26.1868 114.788 24.0773L128.499 18.452L127.971 17.2215C127.092 14.9362 124.456 10.7173 119.182 10.7173C113.909 10.7173 109.514 14.9362 109.514 20.9131C109.514 26.7141 113.909 31.1089 119.71 31.1089C124.456 31.1089 127.092 28.2962 128.147 26.5383L124.631 24.2531C123.577 26.1868 121.995 27.2415 119.71 27.2415Z" fill="#E94235"/>
<path d="M151.175 30.5814C149.769 30.5814 148.538 30.2298 147.132 29.7025C145.901 29.1751 144.671 28.2962 143.616 27.2414C142.562 26.1867 141.858 24.7804 141.331 23.0225L144.495 21.792C144.847 23.3741 145.726 24.7804 146.956 25.8351C148.187 26.8898 149.593 27.4172 151.175 27.4172C152.23 27.4172 153.109 27.2414 153.988 26.8898C154.867 26.5383 155.57 26.0109 156.097 25.3077C156.624 24.6046 156.976 23.7256 156.976 22.6709C156.976 21.2646 156.449 20.2098 155.394 19.5067C154.339 18.6277 152.933 17.9246 150.823 17.2214L149.066 16.5183C148.011 16.1667 146.956 15.6393 145.901 15.1119C144.847 14.5846 143.968 13.7056 143.265 12.8267C142.562 11.772 142.21 10.5414 142.21 9.1351C142.21 7.72879 142.562 6.49827 143.265 5.44353C143.968 4.38879 145.023 3.50984 146.253 2.80669C147.484 2.10353 148.89 1.75195 150.648 1.75195C152.406 1.75195 153.812 2.10353 155.042 2.80669C156.273 3.50984 157.152 4.21301 157.855 5.09196C158.558 5.9709 159.085 6.67405 159.261 7.37721L156.273 8.60774C156.097 8.08038 155.745 7.553 155.394 7.02564C155.042 6.49827 154.339 5.97089 153.636 5.61932C152.933 5.26774 152.054 4.91617 150.823 4.91617C149.945 4.91617 149.066 5.09195 148.187 5.44353C147.484 5.79511 146.78 6.32248 146.253 7.02564C145.726 7.72879 145.55 8.43195 145.55 9.1351C145.55 10.3656 146.077 11.2446 146.956 11.9477C147.835 12.6509 149.066 13.1783 150.648 13.7056L152.406 14.4088C153.284 14.7604 153.988 15.112 154.867 15.4635C155.745 15.8151 156.624 16.3425 157.327 17.0456C158.031 17.7488 158.734 18.4519 159.085 19.5067C159.613 20.3856 159.788 21.6162 159.788 22.8467C159.788 24.253 159.437 25.4835 158.91 26.5383C158.382 27.593 157.679 28.2962 156.8 28.9993C155.921 29.7025 154.867 30.0541 153.812 30.4056C153.284 30.4056 152.23 30.5814 151.175 30.5814ZM173.324 30.5814C171.39 30.5814 169.632 30.0541 168.226 29.1751C166.82 28.2962 165.589 27.0656 164.71 25.4835C163.832 23.9014 163.48 22.1435 163.48 20.0341C163.48 18.1004 163.832 16.3425 164.71 14.7604C165.589 13.1783 166.644 11.9477 168.05 10.893C169.457 9.83826 171.215 9.48669 173.148 9.48669C175.082 9.48669 176.84 9.83826 178.246 10.7172C179.652 11.5962 180.707 12.8267 181.41 14.233C182.113 15.8151 182.641 17.573 182.641 19.5067C182.641 19.6825 182.641 19.8583 182.641 20.0341C182.641 20.2098 182.641 20.3856 182.641 20.5614H166.996C167.171 22.1435 167.523 23.3741 168.05 24.4288C168.754 25.4835 169.632 26.1867 170.511 26.714C171.566 27.2414 172.445 27.4172 173.5 27.4172C174.906 27.4172 176.136 27.0656 177.015 26.3625C177.894 25.6593 178.773 24.7804 179.301 23.7256L182.113 25.132C181.41 26.7141 180.18 27.9446 178.773 28.8235C177.191 30.0541 175.433 30.5814 173.324 30.5814ZM172.972 12.4751C171.39 12.4751 169.984 13.0025 168.929 14.0572C167.875 15.112 167.171 16.3425 166.82 17.9246H178.773C178.773 17.2214 178.597 16.3425 178.07 15.6393C177.719 14.7604 177.015 14.0572 176.136 13.5298C175.609 12.8267 174.379 12.4751 172.972 12.4751ZM192.836 30.5814C191.43 30.5814 190.023 30.2298 188.969 29.7025C187.914 29.1751 187.035 28.2962 186.332 27.4172C185.629 26.3625 185.453 25.3077 185.453 24.0772C185.453 22.6709 185.805 21.4404 186.508 20.3856C187.211 19.3309 188.266 18.6277 189.496 18.1004C190.727 17.573 192.133 17.3972 193.715 17.3972C194.945 17.3972 196.176 17.573 197.231 17.7488C198.285 17.9246 198.989 18.2762 199.34 18.6277V17.3972C199.34 15.8151 198.813 14.7604 197.758 13.8814C196.703 13.0025 195.473 12.6509 193.891 12.6509C192.836 12.6509 191.781 12.8267 190.902 13.3541C190.023 13.8814 189.32 14.4088 188.617 15.2877L186.156 13.3541C186.859 12.1235 187.914 11.2446 189.32 10.5414C190.727 9.83827 192.133 9.48669 193.891 9.48669C196.528 9.48669 198.637 10.1898 200.219 11.5962C201.801 13.0025 202.504 14.9362 202.504 17.3972V29.8783H199.34V27.0656H199.164C198.637 27.9446 197.758 28.8235 196.703 29.5267C195.649 30.2298 194.242 30.5814 192.836 30.5814ZM193.012 27.593C194.067 27.593 195.121 27.2414 196.176 26.714C197.055 26.1867 197.934 25.3077 198.461 24.4288C198.989 23.5498 199.34 22.4951 199.34 21.2646C198.813 20.913 197.934 20.5614 197.055 20.2098C196.176 20.0341 195.297 19.8583 194.067 19.8583C192.133 19.8583 190.727 20.2098 189.848 21.0888C188.969 21.7919 188.617 22.8467 188.617 23.9014C188.617 24.9562 188.969 25.8351 189.848 26.5383C190.727 27.2414 191.781 27.593 193.012 27.593ZM207.075 29.8783V10.1899H210.239V13.3541H210.415C210.59 12.6509 211.118 11.9477 211.645 11.4204C212.348 10.893 212.876 10.3656 213.754 10.1899C214.633 9.83827 215.337 9.66248 216.04 9.66248C216.567 9.66248 217.094 9.66248 217.446 9.83826C217.798 9.83826 218.149 10.0141 218.325 10.1899V13.7056C217.446 13.3541 216.567 13.0025 215.512 13.0025C214.633 13.0025 213.754 13.3541 212.876 13.8814C211.997 14.4088 211.469 15.1119 210.942 15.9909C210.415 16.8698 210.239 17.9246 210.239 18.9793V30.0541H207.075V29.8783ZM229.224 30.5814C227.29 30.5814 225.532 30.0541 224.126 29.1751C222.544 28.2962 221.489 27.0656 220.61 25.4835C219.731 23.9014 219.38 22.1435 219.38 20.0341C219.38 18.1004 219.731 16.1667 220.61 14.5846C221.489 13.0025 222.719 11.7719 224.126 10.893C225.708 10.0141 227.29 9.48669 229.224 9.48669C231.509 9.48669 233.267 10.0141 234.673 11.0688C236.079 12.1235 237.134 13.3541 237.661 14.9362L234.673 16.1667C234.146 14.9362 233.442 14.0572 232.388 13.3541C231.509 12.6509 230.278 12.4751 228.872 12.4751C227.641 12.4751 226.587 12.8267 225.708 13.3541C224.653 14.0572 223.95 14.9362 223.247 15.9909C222.544 17.0456 222.368 18.452 222.368 19.8583C222.368 21.4404 222.719 22.6709 223.247 23.7256C223.95 24.7804 224.653 25.6593 225.708 26.3625C226.763 27.0656 227.817 27.2414 228.872 27.2414C230.278 27.2414 231.509 26.8898 232.388 26.1867C233.442 25.4835 234.146 24.6046 234.673 23.3741L237.661 24.6046C236.958 26.1867 235.903 27.4172 234.497 28.4719C233.267 30.054 231.509 30.5814 229.224 30.5814ZM241.528 29.8783V2.10353H244.868V10.1899L244.693 12.8267H244.868C245.396 11.772 246.275 11.0688 247.329 10.3656C248.56 9.66248 249.79 9.3109 251.197 9.3109C253.658 9.3109 255.591 10.0141 256.822 11.5962C258.052 13.0025 258.58 14.9362 258.58 17.0456V29.7025H255.24V17.573C255.24 15.6393 254.712 14.4088 253.833 13.5298C252.955 12.6509 251.724 12.2993 250.494 12.2993C249.439 12.2993 248.384 12.6509 247.681 13.1783C246.978 13.7056 246.099 14.5846 245.747 15.6393C245.22 16.6941 245.044 17.573 245.044 18.6277V29.5267H241.528V29.8783ZM285.123 30.5814C283.014 30.5814 281.256 30.2298 279.498 29.5267C277.74 28.8235 276.334 27.7688 274.928 26.5383C273.697 25.3077 272.642 23.7256 271.939 21.9677C271.236 20.2098 270.885 18.2762 270.885 16.1667C270.885 14.0572 271.236 12.1235 271.939 10.3656C272.642 8.60774 273.697 7.02564 274.928 5.79512C276.158 4.56459 277.74 3.50984 279.498 2.80669C281.256 2.10353 283.19 1.75195 285.123 1.75195C287.233 1.75195 289.166 2.10353 290.924 2.98247C292.682 3.68563 294.088 4.91616 295.319 6.32248L293.033 8.60774C290.924 6.14669 288.463 4.91617 285.299 4.91617C283.365 4.91617 281.432 5.44353 279.85 6.32248C278.092 7.20142 276.861 8.60775 275.807 10.1899C274.752 11.9477 274.224 13.8814 274.224 16.1667C274.224 18.4519 274.752 20.3856 275.807 22.1435C276.861 23.9014 278.092 25.132 279.85 26.0109C281.607 26.8898 283.365 27.4172 285.299 27.4172C287.057 27.4172 288.639 27.0656 290.045 26.3625C291.451 25.6593 292.682 24.6046 293.737 23.3741L296.198 25.6593C294.967 27.0656 293.385 28.2962 291.627 29.1751C289.518 30.0541 287.408 30.5814 285.123 30.5814ZM308.503 30.5814C306.569 30.5814 304.811 30.0541 303.229 29.1751C301.647 28.2962 300.592 27.0656 299.713 25.4835C298.834 23.9014 298.483 22.1435 298.483 20.2098C298.483 18.2762 298.834 16.5183 299.713 14.9362C300.592 13.3541 301.823 12.1235 303.229 11.0688C304.811 10.1899 306.569 9.66248 308.503 9.66248C310.436 9.66248 312.194 10.1899 313.776 11.0688C315.358 11.9477 316.413 13.1783 317.292 14.9362C318.171 16.5183 318.522 18.2762 318.522 20.2098C318.522 22.1435 318.171 23.9014 317.292 25.4835C316.413 27.0656 315.182 28.2962 313.776 29.1751C312.194 30.0541 310.436 30.5814 308.503 30.5814ZM308.503 27.593C309.733 27.593 310.788 27.2414 311.842 26.714C312.897 26.1867 313.776 25.3077 314.479 24.0772C315.182 23.0225 315.534 21.6162 315.534 20.0341C315.534 18.452 315.182 17.0456 314.479 15.9909C313.776 14.9362 313.073 14.0572 311.842 13.3541C310.788 12.8267 309.733 12.4751 308.503 12.4751C307.272 12.4751 306.217 12.8267 305.163 13.3541C304.108 13.8814 303.229 14.7604 302.526 15.9909C301.823 17.0456 301.471 18.452 301.471 20.0341C301.471 21.6162 301.823 23.0225 302.526 24.0772C303.229 25.1319 304.108 26.0109 305.163 26.714C306.217 27.2414 307.272 27.593 308.503 27.593ZM322.038 29.8783V10.1899H325.202V13.1783H325.378C325.905 12.2993 326.784 11.4204 327.839 10.7172C329.069 10.0141 330.3 9.66248 331.706 9.66248C334.167 9.66248 335.925 10.3656 337.156 11.7719C338.386 13.1783 339.089 14.9362 339.089 17.3972V30.0541H335.749V17.9246C335.749 15.9909 335.222 14.7604 334.343 13.8814C333.464 13.0025 332.234 12.6509 330.827 12.6509C329.773 12.6509 328.718 13.0025 328.015 13.5298C327.136 14.0572 326.608 14.9362 326.081 15.8151C325.554 16.6941 325.378 17.7488 325.378 18.8035V29.8783H322.038ZM350.515 30.5814C348.23 30.5814 346.472 30.0541 345.066 28.9993C343.66 27.9446 342.781 26.7141 342.253 25.3077L345.242 24.0772C345.769 25.3077 346.472 26.1867 347.527 26.8898C348.582 27.593 349.636 27.7688 350.867 27.7688C352.097 27.7688 353.152 27.593 353.855 27.0656C354.734 26.5383 355.086 25.8351 355.086 24.9562C355.086 24.0772 354.734 23.3741 353.855 22.8467C353.152 22.3193 352.097 21.9677 350.691 21.6162L348.23 20.913C347.351 20.7372 346.472 20.2099 345.593 19.8583C344.714 19.3309 344.187 18.8035 343.66 18.1004C343.132 17.3972 342.956 16.5183 342.956 15.4635C342.956 14.233 343.308 13.1783 344.011 12.4751C344.714 11.5962 345.593 10.893 346.824 10.5414C347.878 10.0141 349.109 9.83826 350.515 9.83826C352.273 9.83826 353.679 10.1898 355.086 10.893C356.492 11.5962 357.371 12.6509 358.074 14.0572L355.261 15.2877C354.734 14.233 354.031 13.7056 353.328 13.1783C352.449 12.8267 351.57 12.6509 350.515 12.6509C349.46 12.6509 348.406 12.8267 347.703 13.3541C346.824 13.8814 346.472 14.4088 346.472 15.2877C346.472 16.1667 346.824 16.6941 347.527 17.2214C348.23 17.573 348.933 17.9246 349.988 18.2762L352.8 18.9793C356.668 20.0341 358.601 21.9677 358.601 24.7804C358.601 26.0109 358.25 27.0656 357.547 27.9446C356.843 28.8235 355.965 29.5267 354.734 30.0541C353.152 30.2298 351.921 30.5814 350.515 30.5814ZM371.082 30.5814C369.148 30.5814 367.391 30.0541 365.808 29.1751C364.226 28.2962 363.172 27.0656 362.293 25.4835C361.414 23.9014 361.062 22.1435 361.062 20.2098C361.062 18.2762 361.414 16.5183 362.293 14.9362C363.172 13.3541 364.402 12.1235 365.808 11.0688C367.391 10.1899 369.148 9.66248 371.082 9.66248C373.016 9.66248 374.773 10.1899 376.356 11.0688C377.938 11.9477 378.992 13.1783 379.871 14.9362C380.75 16.5183 381.102 18.2762 381.102 20.2098C381.102 22.1435 380.75 23.9014 379.871 25.4835C378.992 27.0656 377.762 28.2962 376.356 29.1751C374.949 30.0541 373.191 30.5814 371.082 30.5814ZM371.082 27.593C372.312 27.593 373.367 27.2414 374.422 26.714C375.477 26.1867 376.356 25.3077 377.059 24.0772C377.762 23.0225 378.113 21.6162 378.113 20.0341C378.113 18.452 377.762 17.0456 377.059 15.9909C376.356 14.9362 375.477 14.0572 374.422 13.3541C373.367 12.8267 372.312 12.4751 371.082 12.4751C369.852 12.4751 368.797 12.8267 367.742 13.3541C366.687 13.8814 365.808 14.7604 365.105 15.9909C364.402 17.0456 364.226 18.452 364.226 20.0341C364.226 21.6162 364.578 23.0225 365.105 24.0772C365.808 25.1319 366.687 26.0109 367.742 26.714C368.797 27.2414 370.027 27.593 371.082 27.593ZM384.969 29.8783V2.10353H388.309V29.8783H384.969ZM401.669 30.5814C399.735 30.5814 397.977 30.0541 396.571 29.1751C395.165 28.2962 393.934 27.0656 393.055 25.4835C392.176 23.9014 391.825 22.1435 391.825 20.0341C391.825 18.1004 392.176 16.3425 393.055 14.7604C393.934 13.1783 394.989 11.9477 396.395 10.893C397.801 9.83826 399.559 9.48669 401.493 9.48669C403.426 9.48669 405.184 9.83826 406.591 10.7172C407.997 11.5962 409.052 12.8267 409.755 14.233C410.458 15.8151 410.985 17.573 410.985 19.5067C410.985 19.6825 410.985 19.8583 410.985 20.0341C410.985 20.2098 410.985 20.3856 410.985 20.5614H395.34C395.516 22.1435 395.868 23.3741 396.395 24.4288C397.098 25.4835 397.977 26.1867 398.856 26.714C399.911 27.2414 400.79 27.4172 401.844 27.4172C403.251 27.4172 404.481 27.0656 405.36 26.3625C406.239 25.6593 407.118 24.7804 407.645 23.7256L410.458 25.132C409.755 26.7141 408.524 27.9446 407.118 28.8235C405.536 30.0541 403.778 30.5814 401.669 30.5814ZM401.317 12.4751C399.735 12.4751 398.329 13.0025 397.274 14.0572C396.219 15.112 395.516 16.3425 395.165 17.9246H407.118C407.118 17.2214 406.942 16.3425 406.415 15.6393C406.063 14.7604 405.36 14.0572 404.481 13.5298C403.954 12.8267 402.899 12.4751 401.317 12.4751Z" fill="white"/>
</svg>
