<svg width="411" height="48" viewBox="0 0 411 48" fill="none" xmlns="http://www.w3.org/2000/svg">
<g clip-path="url(#clip0_39_2178)">
<path fill-rule="evenodd" clip-rule="evenodd" d="M22.5952 4.14736C21.3092 4.35284 20.0289 4.59239 18.7557 4.86577C17.913 5.04346 17.0714 5.20916 16.2396 5.41738C15.4722 5.61034 14.6851 5.78149 13.9329 6.01914C13.2071 6.24228 12.4884 6.48768 11.7777 6.75499C10.3875 7.28924 9.09278 8.04464 7.94361 8.99197C7.24592 9.57411 6.5951 10.2064 6.04894 10.9357C5.6722 11.4553 5.33233 12.0006 5.03183 12.5677C4.74076 13.1095 4.54127 13.7516 4.53473 14.3729C4.52491 16.2 5.69246 17.7306 7.03661 18.8665C7.47812 19.2372 7.94798 19.5795 8.42437 19.9054C9.83829 20.8757 11.3776 21.7282 12.9408 22.4705C14.5543 23.2336 16.1786 23.9662 17.8225 24.6639C19.3771 25.3213 20.9654 25.8773 22.569 26.4082C23.0302 26.5586 23.4967 26.709 23.9579 26.8606C25.411 27.3402 26.8958 27.7839 28.3381 28.3039C29.2364 28.6266 30.1935 28.9286 31.0907 29.3319C32.0228 29.7505 32.9908 30.1681 33.8128 30.7698C34.3661 31.1618 34.8347 31.6612 35.1907 32.2383C35.5363 32.8073 35.7522 33.4592 35.7674 34.1242C35.7834 34.7626 35.6047 35.3907 35.2551 35.9251C34.3535 37.326 32.7848 38.2809 31.2717 38.9176C29.0085 39.8658 26.6937 40.6858 24.3383 41.3737C22.9953 41.7651 21.6522 42.1531 20.2993 42.5031C18.941 42.8541 17.5565 43.2226 16.184 43.5649C14.8159 43.9072 13.4478 44.2157 12.0742 44.51C11.2871 44.6768 10.4946 44.8414 9.71292 45.0039C9.24198 45.0976 8.78085 45.1968 8.30881 45.2982C7.32659 45.5108 6.34437 45.7212 5.35779 45.9305C4.23494 46.1769 3.11208 46.4156 1.98923 46.6598C1.66219 46.7307 1.33733 46.8168 1.01137 46.8887C0.720303 46.9552 -0.366573 47.206 0.440136 47.158C1.56299 47.097 4.56089 46.8364 10.9655 45.985C13.2875 45.6035 15.6172 45.2764 17.9424 44.8992C20.8387 44.4358 23.7178 43.8704 26.5742 43.204C27.3918 43.0122 28.2029 42.8072 29.0161 42.587C29.5525 42.4388 30.0834 42.2851 30.6099 42.1215C32.8556 41.4304 36.4586 40.2094 37.3111 39.8409C40.5695 38.4238 42.5983 37.3576 43.6568 34.8175C44.0177 33.916 44.1877 32.9065 44.0776 31.9396C43.9664 31.0381 43.6679 30.1699 43.2011 29.3908C42.7542 28.6549 42.1437 28.027 41.506 27.4471C40.3177 26.3722 38.9855 25.5044 37.5618 24.7686C37.1581 24.5594 36.7488 24.3613 36.3343 24.1744C35.8196 23.942 35.3013 23.7174 34.7798 23.5007C34.0453 23.2021 33.3015 22.9272 32.5493 22.6766C30.5947 22.0116 28.6095 21.4186 26.6451 20.7819C25.5324 20.4272 24.4352 20.026 23.3561 19.5795C22.9012 19.3912 22.4519 19.1898 22.0087 18.9755C21.4876 18.7248 20.9807 18.4501 20.4792 18.1557C19.8633 17.7862 18.8549 17.1506 19.1362 16.2861C19.3324 15.6702 20.0083 15.4304 20.5599 15.2091C21.0712 15.0041 21.6119 14.8602 22.1439 14.7218C23.7682 14.3075 25.4263 14.0285 27.0659 13.6818C27.548 13.5809 28.0291 13.4755 28.5092 13.3656C29.788 13.068 31.106 12.8456 32.3247 12.3649C33.3713 11.9561 34.7143 11.3031 35.1057 10.1628C35.6671 8.5025 35.0294 6.70703 34.1137 5.30619C33.7821 4.80389 33.4411 4.30779 33.0911 3.81814C32.6093 3.14988 32.0773 2.52086 31.5573 1.88422C31.3218 1.59533 31.0351 1.61713 30.7942 1.69126C30.4737 1.80028 29.5972 2.81847 22.5952 4.14736Z" fill="#CC0000"/>
<path fill-rule="evenodd" clip-rule="evenodd" d="M129.955 18.6987L130.05 18.4807L130.16 18.2921L130.256 18.1187L130.351 17.9705L130.416 17.8244L130.486 17.7154L130.54 17.6086L130.611 17.5432L130.781 17.2477L130.882 17.0711L131.001 16.8978L131.258 16.4683L131.414 16.2372L131.574 15.9973L131.614 15.957L131.669 15.9428L131.789 15.9853L131.849 16.0246L131.929 16.1183L132.089 16.3473L132.255 16.6525L132.44 17.0711L132.637 17.5693L132.851 18.1733L132.892 18.279L132.962 18.4556L133.052 18.6845L133.177 18.9789L133.193 19.0334L133.218 19.101L133.258 19.2351L133.288 19.3419L133.313 19.4509V19.5305L133.328 19.6122L133.313 19.6362V19.7452L133.233 19.8521L133.178 19.9186L133.042 19.9731L132.861 20.0276L132.637 20.0548H132.495L132.361 20.0668L131.027 20.1737H130.771L130.571 20.1889H130.36L130.2 20.2009L130.035 20.1889H129.724L129.573 20.1617L129.479 20.1344L129.399 20.0821L129.352 20.0134L129.313 19.9186L129.332 19.827L129.352 19.7027L129.423 19.5697L129.523 19.3964L129.614 19.2481L129.693 19.1141L129.774 19.005L129.834 18.8982L129.89 18.8175L129.915 18.738L129.955 18.6987ZM121.413 25.039C121.413 25.039 121.604 25.0881 121.604 25.0902C122.33 25.2974 122.687 25.7814 122.131 26.4159C121.955 26.6186 121.815 26.8454 121.673 27.0667L121.553 27.2673C121.433 27.4657 121.344 27.6499 121.324 27.8843L121.333 28.0075C121.368 28.3312 121.629 28.6779 121.79 28.9559C122.124 29.525 122.477 30.0319 122.868 30.5541C122.927 30.6391 123.784 29.235 123.839 29.1554C124.146 28.7346 124.501 28.3618 124.817 27.9497C125.212 27.433 125.644 26.9435 126.216 26.6132C126.787 26.2818 127.443 26.1499 128.101 26.0812C128.751 26.0092 129.403 25.9798 130.05 25.9449C131.382 25.8751 132.706 25.7269 134.029 25.5982C134.541 25.5481 135.298 25.4227 135.759 25.6724C136.206 25.9122 136.546 26.3286 136.892 26.6851C137.307 27.119 137.714 27.5616 138.105 28.014C138.571 28.5493 138.987 29.1216 139.502 29.6165C139.828 29.9327 140.165 30.2107 140.536 30.4777L140.727 30.5998C141.383 30.9236 141.844 30.4974 141.985 29.8389C142.185 28.8665 141.628 27.9203 141.173 27.1016C140.923 26.6537 140.692 26.1955 140.481 25.728C140.3 25.3464 140.119 24.7566 140.441 24.3904C140.692 24.1102 141.206 24.096 141.549 24.0066C141.953 23.8998 142.351 23.7777 142.757 23.697C143.569 23.5313 144.374 23.3155 145.202 23.2119C145.663 23.1574 146.419 22.8184 146.816 23.2185C147.337 23.7363 146.841 24.712 146.641 25.2658C146.315 26.1902 145.984 27.1473 145.88 28.1263C145.788 29.0169 146.008 29.9752 146.581 30.686C147.002 31.2092 147.709 31.6595 148.37 31.2801C148.896 30.9748 149.282 30.3251 149.518 29.7855C149.959 28.7553 150.264 27.6859 150.615 26.6252C150.932 25.6702 151.259 24.7174 151.618 23.7733C151.883 23.0865 152.188 22.4096 152.456 21.7239C152.626 21.278 152.861 20.8626 153.048 20.4233C153.197 20.0527 153.248 19.5697 153.618 19.3364C154.069 19.0574 154.625 19.8663 154.841 20.1486C155.252 20.6762 155.618 21.2278 155.994 21.7784C156.408 22.3725 156.786 23.1596 157.457 23.4986C158.615 24.0873 159.653 22.7115 160.305 21.9724C160.756 21.4688 161.212 20.9488 161.678 20.4429C162.173 19.9011 162.68 19.3637 163.172 18.8219C163.492 18.4752 163.913 17.795 164.44 17.7841C164.895 17.7775 165.001 18.2703 165.041 18.6235C165.243 20.3154 165.317 22.0356 165.572 23.7319C165.672 24.362 165.798 24.9889 165.908 25.6157L166.068 26.502C166.149 26.9228 166.234 27.3436 166.324 27.7622C166.52 28.631 166.726 29.4999 166.992 30.3502C167.226 31.0697 167.527 31.8491 168.13 32.355C168.845 32.9546 170.158 32.754 170.62 31.9167C170.714 31.7412 170.756 31.5275 170.795 31.3302C170.876 30.9138 170.835 30.4777 170.801 30.0591C170.681 28.5667 170.26 27.1081 170.234 25.6026C170.228 24.9812 170.279 24.3653 170.329 23.7461C170.434 22.3027 170.62 20.8637 170.699 19.4182C170.801 17.6511 170.961 15.7815 170.445 14.058C170.301 13.5617 170.093 13.0861 169.827 12.6429C169.593 12.2461 169.312 11.8787 168.991 11.5484C168.663 11.1989 168.283 10.9032 167.864 10.672C167.463 10.4561 166.94 10.286 166.485 10.2632C165.388 10.2086 164.25 10.8104 163.392 11.4394C162.659 11.9736 161.999 12.583 161.372 13.2338C160.26 14.4024 159.141 15.6092 158.154 16.8912C157.868 17.2652 157.521 17.94 156.946 17.8691C156.265 17.7797 155.903 16.7648 155.692 16.2295C155.484 15.725 155.26 15.2272 155.021 14.7371C154.711 14.1125 154.395 13.4943 154.099 12.8621C153.853 12.3388 153.602 11.7937 153.222 11.3544C152.786 10.8551 152.224 10.6131 151.603 10.4092C151.163 10.2664 150.535 10.0855 150.105 10.3406C149.527 10.6818 149.639 11.5386 149.604 12.0924C149.568 12.5884 149.513 13.0681 149.467 13.5641C149.342 14.7589 149.268 15.9897 148.997 17.1627C148.877 17.6827 148.701 18.3368 148.249 18.6715C147.899 18.9287 147.457 18.8938 147.052 18.9113C146.72 18.9255 146.386 18.9156 146.049 18.9058C145.287 18.8895 144.526 18.859 143.764 18.8786C143.112 18.8982 142.456 18.9385 141.799 18.9625C141.217 18.9876 140.631 19.0443 140.044 19.0443C139.388 19.0813 138.586 19.186 137.97 18.8982C137.483 18.6693 137.222 18.1493 137.006 17.6881C136.695 17.033 136.301 16.4181 135.929 15.7935C135.593 15.2375 135.268 14.6772 134.927 14.1255C134.437 13.3297 133.949 12.5383 133.448 11.7512C133.121 11.2291 132.782 10.7148 132.431 10.2086C132.145 9.79766 131.783 9.24605 131.282 9.07489C130.823 8.91682 130.37 9.21661 130.275 9.66684C130.21 9.959 130.28 10.2577 130.22 10.5499C130.154 10.8595 130.03 11.1647 129.899 11.4547C129.644 12.0379 129.303 12.583 128.957 13.1172C127.794 14.905 126.927 16.8891 125.89 18.7478C125.694 19.0944 125.489 19.4335 125.292 19.7801C125.027 20.2652 124.853 20.6664 124.271 20.8201C123.748 20.9564 123.188 20.8866 122.662 21.0153C122.011 21.1766 121.819 21.7315 121.709 22.3333C121.619 22.8424 121.604 23.3624 121.524 23.8758C121.464 24.2465 121.373 24.664 121.413 25.039ZM50.3426 35.5066C49.8063 35.524 49.2743 35.6232 48.7445 35.5938C48.1231 35.5578 47.7306 35.185 47.5017 34.6399C47.2302 33.988 47.0754 33.2511 46.9097 32.5676C46.7593 31.9211 46.6383 31.2855 46.7091 30.6249C46.7538 30.2652 46.8094 30.0035 47.1049 29.755C47.5715 29.3734 48.2223 29.622 48.7139 29.3494C49.1554 29.1042 49.3004 28.5711 49.3408 28.1089C49.4105 27.3316 49.3255 26.4976 49.2863 25.7171C49.1652 23.7112 49.3004 21.6661 49.0442 19.6733C48.9897 19.2133 48.8393 18.6856 48.3226 18.5494C47.3 18.279 47.2902 17.2772 47.2259 16.4127C47.1855 15.8709 47.1801 15.232 47.4003 14.7229C47.6957 14.0242 48.4839 13.6622 49.1751 13.4518C49.8466 13.2469 50.529 13.0594 51.2104 12.8751C51.9015 12.6898 52.6188 12.5884 53.3252 12.4685C54.0524 12.3475 54.7795 12.2439 55.511 12.1317C56.2229 12.0216 56.9347 11.9245 57.6564 11.8482C58.3279 11.773 59.0038 11.6912 59.6808 11.652C60.4733 11.6051 61.2746 11.5582 62.0671 11.5288C62.779 11.4983 63.4898 11.5136 64.1973 11.5179C64.9048 11.5234 65.6058 11.5528 66.3078 11.5746C67.0295 11.5997 67.761 11.6596 68.4728 11.7556C69.5107 11.8951 70.4972 12.0728 71.3901 12.6495C72.3167 13.2556 72.9337 14.4962 72.0169 15.413C71.0892 16.3407 69.5957 16.187 68.3933 16.187C67.4072 16.1895 66.4212 16.207 65.4357 16.2393C64.4873 16.2699 63.5399 16.3658 62.5882 16.4247C61.7052 16.4792 60.8287 16.5413 59.9424 16.6089C59.03 16.6776 58.1121 16.7648 57.1996 16.8542C56.4725 16.9229 55.7421 16.9926 55.0248 17.1234C54.423 17.2325 53.7166 17.3393 53.2555 17.7754C52.9143 18.0991 52.899 18.6409 53.0396 19.065C53.3154 19.8826 54.5691 19.6755 55.2308 19.6591C56.7341 19.6144 58.2222 19.3691 59.7211 19.2699C60.4123 19.2231 61.1002 19.198 61.7859 19.1587C62.6187 19.1097 63.4451 19.0824 64.2823 19.1217C65.0138 19.1566 65.7311 19.2405 66.4473 19.3866C67.3249 19.5676 68.1425 19.9011 68.9492 20.2696C69.9816 20.6239 69.817 21.9146 69.6458 22.7442C69.5554 23.1792 69.4104 23.5619 69.0135 23.806C68.112 24.3555 66.8333 24.217 65.826 24.2432C64.8339 24.2715 63.8364 24.3577 62.8499 24.447C61.2909 24.5931 59.732 24.7457 58.1775 24.9376C57.2247 25.0564 56.273 25.22 55.3213 25.3192C54.6781 25.3878 53.8365 25.3235 53.3111 25.7716L53.2151 25.8533L53.1454 25.8926L53.0952 25.9863L53.0342 26.1106C52.9644 26.5063 52.5534 27.8112 52.9644 28.1241L53.0494 28.1634H53.1846C53.7068 28.1655 54.2224 28.1361 54.7435 28.1132C55.5361 28.0794 56.3275 28.0478 57.1244 27.9824C58.6484 27.8592 60.1725 27.7349 61.6965 27.6041C62.6885 27.5169 63.7111 27.4624 64.7129 27.373C66.2145 27.2459 67.719 27.155 69.225 27.1005C70.1364 27.0645 71.014 27.0787 71.8708 26.7047C72.8629 26.2665 73.6859 25.5001 74.6583 25.0019C75.8858 24.3751 77.1439 23.8159 78.3866 23.225C79.9107 22.499 81.3998 21.6639 82.9489 20.9902C84.1415 20.4735 85.3396 19.9611 86.5322 19.4455C87.11 19.198 87.6998 18.9658 88.2514 18.654C88.6329 18.4338 89.6195 17.9563 89.3688 17.3633C89.239 17.0569 88.8433 17.0122 88.5522 16.9774C87.4098 16.8411 84.5427 17.0515 82.7876 17.3186C79.9455 17.8091 79.5498 18.1776 78.7584 17.4036C78.1566 16.767 78.307 15.8687 78.3975 15.0816C78.4869 14.2716 78.8794 13.0463 79.1541 12.7411C79.9761 11.6771 82.6873 11.5528 83.9507 11.4612C84.6026 11.4143 85.2644 11.3958 85.9206 11.3893C86.8429 11.3827 87.7608 11.4438 88.6776 11.4438C89.4726 11.4761 90.2665 11.5306 91.0585 11.6073C91.9611 11.6967 92.9488 11.7185 93.8253 11.9965C94.112 12.0881 94.3965 12.1818 94.668 12.3083C95.575 12.7269 96.4013 13.2741 97.0183 14.0558C97.3846 14.5191 97.6245 15.0511 97.7455 15.6234C97.8054 15.8981 97.8457 16.1685 97.8054 16.4476C97.7749 16.6536 97.7149 17.0646 97.5852 17.2281L97.5307 17.2968C97.4042 17.5693 97.1633 17.8146 96.9431 18.0097C95.8704 18.9407 94.3071 19.2798 93.0131 19.8074C92.3721 20.069 91.7409 20.3721 91.1086 20.6566C89.3339 21.4568 87.5755 22.2875 85.7647 23.0135C84.2767 23.6153 82.793 24.2323 81.3649 24.967C80.9725 25.1698 80.4023 25.4598 80.1658 25.8533C79.9314 26.2687 80.4426 26.2676 80.773 26.2741C81.1338 26.2861 81.5001 26.2643 81.8664 26.2371C82.9631 26.1499 84.0608 26.0463 85.1641 25.9275C86.2869 25.8032 87.4196 25.704 88.5435 25.5634C89.601 25.4293 90.6584 25.2941 91.7104 25.1796C92.8496 25.0652 93.994 25.0099 95.1389 25.0139C96.2967 25.0139 97.4239 25.0281 98.5674 25.2167L98.7375 25.2439L99.0384 25.2592C99.5202 25.2592 100.026 25.1949 100.271 24.7174C100.673 23.9434 100.904 23.0113 101.194 22.1915C101.564 21.1297 101.95 20.0701 102.336 19.0127C102.386 18.8666 102.442 18.7205 102.497 18.5744C102.938 17.3785 103.37 16.1772 103.849 14.9966C104.04 14.5191 104.242 14.046 104.396 13.5532C104.512 13.1847 104.567 12.8108 104.742 12.4587C105.033 11.8951 105.56 11.531 106.15 11.942C106.628 12.2734 106.953 12.8501 107.229 13.3504C107.514 13.8781 107.761 14.4024 107.895 14.99C108.031 15.5809 107.886 16.1063 107.705 16.6732C107.52 17.2554 107.279 17.832 107.124 18.4229C106.787 19.694 108.051 20.7187 109.023 21.2976C109.901 21.822 110.908 22.1774 111.85 22.5698C112.556 22.8642 113.264 23.1748 114.01 23.3198C114.457 23.4049 115.023 23.4943 115.419 23.2141C116.06 22.7541 116.255 21.8547 116.472 21.1461C116.733 20.2751 116.927 19.3811 117.123 18.4927C117.293 17.7568 117.408 17.0101 117.489 16.259C117.555 15.6681 117.609 15.074 117.645 14.482C117.683 13.7113 117.624 12.9689 117.613 12.2014C117.613 11.7065 117.704 11.0655 118.056 10.6796C118.506 10.1683 119.289 10.431 119.669 10.9161C119.68 10.9271 119.809 11.0928 119.809 11.0928C120.041 11.4787 120.21 11.9027 120.34 12.3323C120.565 13.1052 120.692 13.8999 120.773 14.6979C120.842 15.3552 120.887 16.0137 120.912 16.6754C120.992 18.956 120.833 21.2409 120.521 23.4986C120.351 24.7174 120.08 25.9024 119.82 27.1016C119.669 27.76 119.554 28.4381 119.268 29.0573C119.072 29.4692 118.817 29.8504 118.512 30.1889C118.366 30.3502 118.206 30.4854 118.024 30.5998C117.399 30.989 116.581 30.9738 115.87 30.904C114.878 30.8124 113.925 30.5595 112.992 30.2205C112.405 30.0141 111.828 29.7794 111.263 29.5173C110.687 29.2448 110.106 28.9722 109.55 28.6605C108.989 28.3458 108.445 28.0019 107.92 27.6303C107.418 27.2814 106.928 26.8933 106.503 26.4606C106.125 26.079 105.845 25.5884 105.494 25.1851C105.118 24.7588 104.828 24.616 104.582 25.2025C104.432 25.5841 104.352 25.9842 104.261 26.3853C104.111 27.0863 103.9 27.7807 103.68 28.4653C103.47 29.1412 102.562 31.0174 101.574 30.1442C101.255 29.8607 101.024 29.4977 100.542 29.5031C100.051 29.5097 99.5845 29.7081 99.1081 29.8117C98.6067 29.9239 98.0856 29.9828 97.5743 30.0842C96.6073 30.2793 95.6393 30.5028 94.6778 30.6947C94.0357 30.8168 93.3947 30.9062 92.7569 31.0152C92.1421 31.1198 91.5196 31.1983 90.8982 31.291C90.2572 31.3847 89.6195 31.4861 88.9829 31.5603C87.981 31.6834 86.9835 31.8023 85.985 31.9069C85.1837 32.0116 84.3879 32.0901 83.5899 32.1816C82.9238 32.2536 82.2621 32.3223 81.5949 32.3877C80.4821 32.5025 79.366 32.5825 78.2482 32.6275C76.5585 32.6864 74.8088 32.7856 73.1441 32.4531C72.7735 32.3822 72.2218 32.3375 71.9417 32.065C71.7411 31.872 71.9013 31.5417 71.7509 31.315L71.7258 31.2746L71.6604 31.206L71.6005 31.1645L71.5351 31.1362H71.3999L71.3301 31.1645L71.2494 31.1918L71.1797 31.2463L71.038 31.3422L70.9486 31.448L70.8788 31.5701L70.8385 31.7063C70.4776 32.8575 69.2545 33.2903 68.1425 33.432L50.3426 35.5066ZM216.519 26.5739C214.183 26.7396 211.982 27.1299 209.611 26.9075C208.844 26.8334 207.526 26.7712 206.88 26.3537C204.985 25.1208 211.622 22.9241 212.439 22.6363C214.739 21.8252 219.375 20.5029 219.375 20.5029C219.375 20.5029 223.732 19.4335 223.862 17.1158C224.021 14.3032 221.093 13.031 218.854 12.3279C217.932 12.1208 216.998 11.9686 216.057 11.8722C215.417 11.8131 214.775 11.7753 214.133 11.7588C212.925 11.7163 211.746 11.833 210.543 11.9769C209.311 12.1229 206.689 12.1993 206.308 13.7298C206.117 14.5093 205.225 16.1161 205.972 16.8215C206.763 17.5715 208.053 17.2597 209.025 17.166C210.368 17.0351 211.696 16.7866 213.034 16.6558C214.023 16.5587 215.31 16.344 216.122 17.0591C217.12 17.9487 214.473 18.7903 213.946 19.0127C211.948 19.8543 209.858 20.4582 207.852 21.2834C205.972 22.0553 204.087 22.7987 202.253 23.6643C201.411 24.06 200.625 24.5484 199.833 25.0237L199.452 24.7665L197.141 25.0085L194.825 25.1971C193.277 25.3235 191.707 25.3671 190.154 25.4402C189.377 25.4663 188.159 25.4969 187.546 24.9245C186.21 23.6709 186.955 21.9321 187.837 20.7187C188.804 19.3997 190.163 18.4207 191.557 17.59C192.494 17.033 193.531 16.5762 194.584 16.2644C195.296 16.0518 196.034 15.8752 196.775 15.7673C196.88 15.9701 197 16.1728 197.116 16.3712C197.176 16.4846 198.906 15.7673 199.07 15.6823C199.601 15.4097 200.344 14.8636 200.359 14.2019C200.384 13.3973 199.682 12.595 199.045 12.1938C198.333 11.7468 197.527 11.5975 196.69 11.5899C195.782 11.5779 194.87 11.6324 193.977 11.749C193.345 11.8364 192.72 11.9694 192.107 12.1469C191.086 12.4413 190.113 12.8403 189.186 13.3526C187.928 14.0472 186.781 14.9262 185.784 15.9603C185.319 16.4444 184.909 16.9773 184.559 17.5497C184.112 18.2768 183.787 19.0813 183.526 19.8913C182.821 22.1327 183.035 24.9224 184.059 27.0372C184.76 28.4893 185.848 29.7506 187.241 30.5966C188.996 31.6638 191.216 32.0159 193.226 31.6344C194.036 31.4865 194.828 31.2564 195.592 30.9476C196.414 30.6195 197.216 30.3764 197.983 29.9381C198.133 29.8585 199.772 28.9308 199.866 29.0551C200.123 29.3843 200.273 29.7877 200.548 30.1016C200.814 30.4069 201.15 30.6838 201.471 30.9214C202.149 31.4229 202.915 31.6213 203.742 31.7183C205.812 31.9636 207.912 32.0879 209.999 32.1151C211.661 32.1369 213.346 32.0247 214.999 31.872C216.073 31.7739 217.145 31.6344 218.212 31.5057C220.93 31.1765 223.176 30.5791 226.118 29.3255C227.184 28.8364 228.133 28.1232 228.899 27.2346C228.576 27.0401 228.237 26.8738 227.886 26.7374C225.746 25.8871 223.305 25.8533 221.029 26.1411C219.981 26.272 218.935 26.3733 217.887 26.4649C217.432 26.5063 216.975 26.5412 216.519 26.5739ZM180.264 28.9755C180.289 28.5831 180.244 28.1873 180.129 27.8843C179.823 27.0907 178.976 26.2861 178.134 26.1324C177.371 25.9972 176.455 26.1411 175.833 26.623C175.497 26.8857 175.132 27.3098 174.956 27.7022C174.569 28.5667 174.61 29.8498 175.176 30.614C176.134 31.9091 178.159 31.9091 179.286 30.8593C179.827 30.3578 180.209 29.7212 180.264 28.9755Z" fill="white"/>
</g>
<path d="M244.721 19V3.39302H247.787L254.174 13.8154V3.39302H257.102V19H253.94L247.648 8.82246V19H244.721ZM262.659 11.1433L259.945 10.6536C260.25 9.56058 260.775 8.75149 261.52 8.22629C262.265 7.70108 263.373 7.43848 264.842 7.43848C266.176 7.43848 267.17 7.59817 267.823 7.91755C268.476 8.22983 268.933 8.63083 269.196 9.12055C269.466 9.60316 269.6 10.4939 269.6 11.7927L269.569 15.2846C269.569 16.2782 269.615 17.0128 269.707 17.4883C269.806 17.9567 269.987 18.4606 270.25 19H267.29C267.212 18.8013 267.116 18.5067 267.003 18.1164C266.953 17.939 266.918 17.8218 266.896 17.7651C266.385 18.2619 265.839 18.6345 265.257 18.8829C264.675 19.1313 264.054 19.2555 263.394 19.2555C262.23 19.2555 261.311 18.9397 260.637 18.308C259.969 17.6764 259.636 16.8779 259.636 15.9127C259.636 15.2739 259.788 14.7061 260.094 14.2093C260.399 13.7054 260.825 13.3222 261.371 13.0596C261.925 12.7899 262.72 12.5556 263.756 12.3569C265.154 12.0943 266.123 11.8495 266.662 11.6223V11.3243C266.662 10.7494 266.52 10.3413 266.236 10.1C265.952 9.85157 265.417 9.72737 264.629 9.72737C264.097 9.72737 263.681 9.83383 263.383 10.0467C263.085 10.2526 262.844 10.6181 262.659 11.1433ZM266.662 13.5706C266.279 13.6983 265.672 13.8509 264.842 14.0283C264.011 14.2058 263.468 14.3797 263.213 14.55C262.823 14.8268 262.627 15.1781 262.627 15.6039C262.627 16.0227 262.783 16.3846 263.096 16.6898C263.408 16.995 263.806 17.1476 264.288 17.1476C264.828 17.1476 265.342 16.9702 265.832 16.6153C266.194 16.3456 266.432 16.0156 266.545 15.6252C266.623 15.3697 266.662 14.8836 266.662 14.1667V13.5706ZM263.426 6.31001L264.895 3.12687H268.248L265.321 6.31001H263.426ZM271.506 15.7743L274.508 15.3165C274.636 15.8985 274.895 16.3421 275.285 16.6472C275.676 16.9453 276.222 17.0944 276.925 17.0944C277.698 17.0944 278.28 16.9524 278.671 16.6685C278.933 16.4698 279.065 16.2037 279.065 15.8701C279.065 15.643 278.994 15.4549 278.852 15.3059C278.703 15.1639 278.369 15.0326 277.851 14.912C275.438 14.3797 273.909 13.8935 273.263 13.4535C272.368 12.8431 271.921 11.995 271.921 10.9091C271.921 9.92964 272.308 9.10635 273.082 8.4392C273.855 7.77206 275.055 7.43848 276.68 7.43848C278.227 7.43848 279.377 7.69044 280.129 8.19435C280.882 8.69826 281.4 9.44347 281.684 10.43L278.862 10.9517C278.742 10.5116 278.511 10.1745 278.17 9.94029C277.837 9.70607 277.358 9.58897 276.733 9.58897C275.945 9.58897 275.381 9.69898 275.041 9.91899C274.813 10.0751 274.7 10.2774 274.7 10.5258C274.7 10.7387 274.799 10.9197 274.998 11.0688C275.268 11.2675 276.197 11.5478 277.787 11.9098C279.384 12.2718 280.498 12.7153 281.13 13.2405C281.755 13.7728 282.067 14.5145 282.067 15.4655C282.067 16.5017 281.634 17.3925 280.768 18.1377C279.902 18.8829 278.621 19.2555 276.925 19.2555C275.385 19.2555 274.164 18.9432 273.263 18.3187C272.368 17.6941 271.783 16.846 271.506 15.7743ZM289.881 7.69399V10.0787H287.837V14.6352C287.837 15.5578 287.855 16.0972 287.89 16.2533C287.933 16.4024 288.022 16.5266 288.156 16.626C288.298 16.7253 288.469 16.775 288.667 16.775C288.944 16.775 289.345 16.6792 289.87 16.4876L290.126 18.8084C289.43 19.1065 288.643 19.2555 287.762 19.2555C287.223 19.2555 286.737 19.1668 286.304 18.9894C285.871 18.8048 285.552 18.5706 285.346 18.2867C285.147 17.9957 285.009 17.6054 284.931 17.1157C284.867 16.7679 284.835 16.0653 284.835 15.0078V10.0787H283.462V7.69399H284.835V5.44769L287.837 3.70175V7.69399H289.881ZM294.821 19H291.829V7.69399H294.608V9.30153C295.083 8.54212 295.509 8.04176 295.885 7.80045C296.269 7.55914 296.702 7.43848 297.184 7.43848C297.865 7.43848 298.522 7.62656 299.154 8.00272L298.227 10.611C297.724 10.2845 297.255 10.1213 296.822 10.1213C296.403 10.1213 296.049 10.2384 295.758 10.4726C295.467 10.6997 295.236 11.1149 295.066 11.7182C294.902 12.3214 294.821 13.5848 294.821 15.5081V19ZM299.76 13.1873C299.76 12.1937 300.005 11.232 300.495 10.3022C300.985 9.3725 301.677 8.66277 302.571 8.17306C303.472 7.68334 304.477 7.43848 305.584 7.43848C307.294 7.43848 308.696 7.99562 309.789 9.1099C310.882 10.2171 311.428 11.6188 311.428 13.3151C311.428 15.0255 310.875 16.445 309.768 17.5734C308.668 18.6948 307.28 19.2555 305.605 19.2555C304.569 19.2555 303.579 19.0213 302.635 18.5529C301.698 18.0844 300.985 17.3996 300.495 16.4982C300.005 15.5897 299.76 14.4861 299.76 13.1873ZM302.827 13.347C302.827 14.4684 303.093 15.3271 303.625 15.9233C304.157 16.5195 304.814 16.8176 305.594 16.8176C306.375 16.8176 307.028 16.5195 307.553 15.9233C308.086 15.3271 308.352 14.4613 308.352 13.3257C308.352 12.2185 308.086 11.3668 307.553 10.7707C307.028 10.1745 306.375 9.87641 305.594 9.87641C304.814 9.87641 304.157 10.1745 303.625 10.7707C303.093 11.3668 302.827 12.2256 302.827 13.347ZM313.717 6.16097V3.39302H316.709V6.16097H313.717ZM316.709 7.69399V18.6487C316.709 20.0894 316.613 21.1044 316.421 21.6934C316.237 22.2896 315.875 22.7545 315.336 23.088C314.803 23.4216 314.122 23.5884 313.291 23.5884C312.993 23.5884 312.67 23.56 312.323 23.5032C311.982 23.4536 311.613 23.3755 311.216 23.269L311.737 20.714C311.879 20.7424 312.014 20.7637 312.142 20.7779C312.262 20.7992 312.376 20.8098 312.482 20.8098C312.788 20.8098 313.036 20.7424 313.228 20.6075C313.426 20.4798 313.558 20.3236 313.622 20.1391C313.685 19.9546 313.717 19.401 313.717 18.4783V7.69399H316.709ZM326.397 15.4017L329.378 15.902C328.994 16.995 328.387 17.8289 327.557 18.4038C326.734 18.9716 325.701 19.2555 324.459 19.2555C322.493 19.2555 321.038 18.6132 320.094 17.3286C319.349 16.2995 318.976 15.0007 318.976 13.4322C318.976 11.5585 319.466 10.0929 320.446 9.03538C321.425 7.97078 322.663 7.43848 324.161 7.43848C325.843 7.43848 327.17 7.99562 328.143 9.1099C329.115 10.2171 329.58 11.9169 329.537 14.2093H322.042C322.064 15.0965 322.305 15.7885 322.766 16.2853C323.228 16.775 323.803 17.0199 324.491 17.0199C324.959 17.0199 325.353 16.8921 325.673 16.6366C325.992 16.3811 326.233 15.9694 326.397 15.4017ZM326.567 12.3782C326.546 11.5123 326.322 10.8558 325.896 10.4087C325.47 9.95448 324.952 9.72737 324.342 9.72737C323.689 9.72737 323.15 9.96513 322.724 10.4406C322.298 10.9162 322.089 11.562 322.096 12.3782H326.567ZM244.582 29.694H247.372V31.3548C247.734 30.787 248.223 30.3256 248.841 29.9708C249.458 29.6159 250.143 29.4385 250.896 29.4385C252.209 29.4385 253.323 29.953 254.238 30.9821C255.154 32.0113 255.612 33.4449 255.612 35.2831C255.612 37.171 255.15 38.6401 254.228 39.6905C253.305 40.7339 252.187 41.2555 250.874 41.2555C250.25 41.2555 249.682 41.1313 249.171 40.8829C248.667 40.6345 248.135 40.2087 247.574 39.6054V45.301H244.582V29.694ZM247.542 35.1554C247.542 36.4258 247.794 37.3662 248.298 37.9765C248.802 38.5798 249.416 38.8815 250.14 38.8815C250.835 38.8815 251.414 38.6047 251.875 38.0511C252.336 37.4904 252.567 36.5748 252.567 35.3044C252.567 34.1192 252.329 33.2391 251.854 32.6642C251.378 32.0893 250.789 31.8019 250.086 31.8019C249.355 31.8019 248.749 32.0858 248.266 32.6536C247.783 33.2143 247.542 34.0482 247.542 35.1554ZM260.86 41H257.869V29.694H260.647V31.3015C261.123 30.5421 261.549 30.0418 261.925 29.8004C262.308 29.5591 262.741 29.4385 263.224 29.4385C263.905 29.4385 264.561 29.6266 265.193 30.0027L264.267 32.611C263.763 32.2845 263.295 32.1213 262.862 32.1213C262.443 32.1213 262.088 32.2384 261.797 32.4726C261.506 32.6997 261.275 33.1149 261.105 33.7182C260.942 34.3214 260.86 35.5848 260.86 37.5081V41ZM265.8 35.1873C265.8 34.1937 266.045 33.232 266.534 32.3022C267.024 31.3725 267.716 30.6628 268.61 30.1731C269.512 29.6833 270.516 29.4385 271.623 29.4385C273.334 29.4385 274.735 29.9956 275.828 31.1099C276.921 32.2171 277.468 33.6188 277.468 35.3151C277.468 37.0255 276.914 38.445 275.807 39.5734C274.707 40.6948 273.319 41.2555 271.644 41.2555C270.608 41.2555 269.618 41.0213 268.674 40.5529C267.737 40.0844 267.024 39.3996 266.534 38.4982C266.045 37.5897 265.8 36.4861 265.8 35.1873ZM268.866 35.347C268.866 36.4684 269.132 37.3271 269.664 37.9233C270.197 38.5195 270.853 38.8176 271.634 38.8176C272.415 38.8176 273.067 38.5195 273.593 37.9233C274.125 37.3271 274.391 36.4613 274.391 35.3257C274.391 34.2185 274.125 33.3668 273.593 32.7707C273.067 32.1745 272.415 31.8764 271.634 31.8764C270.853 31.8764 270.197 32.1745 269.664 32.7707C269.132 33.3668 268.866 34.2256 268.866 35.347ZM287.997 41L284.42 29.694H287.326L289.445 37.1036L291.393 29.694H294.278L296.162 37.1036L298.323 29.694H301.272L297.642 41H294.768L292.819 33.7288L290.903 41H287.997ZM309.406 37.4017L312.387 37.902C312.003 38.995 311.397 39.8289 310.566 40.4038C309.743 40.9716 308.71 41.2555 307.468 41.2555C305.502 41.2555 304.047 40.6132 303.103 39.3286C302.358 38.2995 301.985 37.0007 301.985 35.4322C301.985 33.5585 302.475 32.0929 303.455 31.0354C304.434 29.9708 305.673 29.4385 307.17 29.4385C308.852 29.4385 310.179 29.9956 311.152 31.1099C312.124 32.2171 312.589 33.9169 312.546 36.2093H305.052C305.073 37.0965 305.314 37.7885 305.775 38.2853C306.237 38.775 306.812 39.0199 307.5 39.0199C307.969 39.0199 308.362 38.8921 308.682 38.6366C309.001 38.3811 309.242 37.9694 309.406 37.4017ZM309.576 34.3782C309.555 33.5123 309.331 32.8558 308.905 32.4087C308.48 31.9545 307.961 31.7274 307.351 31.7274C306.698 31.7274 306.159 31.9651 305.733 32.4406C305.307 32.9162 305.098 33.562 305.105 34.3782H309.576ZM314.867 41V25.393H317.859V31.0141C318.781 29.9637 319.874 29.4385 321.138 29.4385C322.514 29.4385 323.654 29.9388 324.555 30.9396C325.456 31.9332 325.907 33.3633 325.907 35.2299C325.907 37.1604 325.446 38.6472 324.523 39.6905C323.607 40.7339 322.493 41.2555 321.18 41.2555C320.534 41.2555 319.896 41.0958 319.264 40.7764C318.639 40.45 318.1 39.9709 317.646 39.3392V41H314.867ZM317.837 35.1021C317.837 36.2732 318.022 37.1391 318.391 37.6998C318.909 38.4946 319.597 38.8921 320.456 38.8921C321.116 38.8921 321.677 38.6118 322.138 38.0511C322.607 37.4833 322.841 36.5926 322.841 35.3789C322.841 34.0872 322.607 33.1575 322.138 32.5897C321.67 32.0148 321.07 31.7274 320.339 31.7274C319.622 31.7274 319.026 32.0077 318.551 32.5684C318.075 33.122 317.837 33.9666 317.837 35.1021ZM328.1 29.694H330.857V31.2377C331.844 30.0382 333.018 29.4385 334.381 29.4385C335.105 29.4385 335.733 29.5875 336.265 29.8856C336.798 30.1837 337.234 30.6344 337.575 31.2377C338.072 30.6344 338.608 30.1837 339.182 29.8856C339.757 29.5875 340.371 29.4385 341.024 29.4385C341.855 29.4385 342.557 29.6088 343.132 29.9495C343.707 30.2831 344.136 30.7763 344.42 31.4293C344.626 31.9119 344.729 32.6926 344.729 33.7714V41H341.738V34.5379C341.738 33.4165 341.635 32.6926 341.429 32.3661C341.152 31.9403 340.726 31.7274 340.151 31.7274C339.733 31.7274 339.339 31.8551 338.97 32.1106C338.6 32.3661 338.334 32.7423 338.171 33.2391C338.008 33.7288 337.926 34.506 337.926 35.5706V41H334.935V34.804C334.935 33.704 334.882 32.9942 334.775 32.6749C334.669 32.3555 334.502 32.1177 334.275 31.9616C334.055 31.8054 333.753 31.7274 333.37 31.7274C332.908 31.7274 332.493 31.8516 332.124 32.1C331.755 32.3484 331.489 32.7068 331.326 33.1752C331.17 33.6436 331.092 34.4208 331.092 35.5067V41H328.1V29.694ZM349.956 33.1433L347.241 32.6536C347.547 31.5606 348.072 30.7515 348.817 30.2263C349.562 29.7011 350.669 29.4385 352.139 29.4385C353.473 29.4385 354.467 29.5982 355.119 29.9176C355.772 30.2298 356.23 30.6308 356.493 31.1205C356.763 31.6032 356.897 32.4939 356.897 33.7927L356.865 37.2846C356.865 38.2782 356.912 39.0128 357.004 39.4883C357.103 39.9567 357.284 40.4606 357.547 41H354.587C354.509 40.8013 354.413 40.5067 354.3 40.1164C354.25 39.939 354.215 39.8218 354.193 39.7651C353.682 40.2619 353.136 40.6345 352.554 40.8829C351.972 41.1313 351.351 41.2555 350.691 41.2555C349.527 41.2555 348.608 40.9397 347.933 40.308C347.266 39.6764 346.933 38.8779 346.933 37.9127C346.933 37.2739 347.085 36.7061 347.391 36.2093C347.696 35.7054 348.122 35.3222 348.668 35.0596C349.222 34.7899 350.017 34.5556 351.053 34.3569C352.451 34.0943 353.42 33.8495 353.959 33.6223V33.3243C353.959 32.7494 353.817 32.3413 353.533 32.1C353.249 31.8516 352.713 31.7274 351.926 31.7274C351.393 31.7274 350.978 31.8338 350.68 32.0467C350.382 32.2526 350.141 32.6181 349.956 33.1433ZM353.959 35.5706C353.576 35.6983 352.969 35.8509 352.139 36.0283C351.308 36.2058 350.765 36.3797 350.51 36.55C350.119 36.8268 349.924 37.1781 349.924 37.6039C349.924 38.0227 350.08 38.3846 350.393 38.6898C350.705 38.995 351.102 39.1476 351.585 39.1476C352.124 39.1476 352.639 38.9702 353.129 38.6153C353.491 38.3456 353.728 38.0156 353.842 37.6252C353.92 37.3697 353.959 36.8836 353.959 36.1667V35.5706ZM358.803 37.7743L361.805 37.3165C361.933 37.8985 362.192 38.3421 362.582 38.6472C362.973 38.9453 363.519 39.0944 364.222 39.0944C364.995 39.0944 365.577 38.9524 365.968 38.6685C366.23 38.4698 366.362 38.2037 366.362 37.8701C366.362 37.643 366.291 37.4549 366.149 37.3059C366 37.1639 365.666 37.0326 365.148 36.912C362.735 36.3797 361.205 35.8935 360.56 35.4535C359.665 34.8431 359.218 33.995 359.218 32.9091C359.218 31.9296 359.605 31.1064 360.379 30.4392C361.152 29.7721 362.352 29.4385 363.977 29.4385C365.524 29.4385 366.674 29.6904 367.426 30.1943C368.179 30.6983 368.697 31.4435 368.981 32.43L366.159 32.9517C366.039 32.5116 365.808 32.1745 365.467 31.9403C365.134 31.7061 364.655 31.589 364.03 31.589C363.242 31.589 362.678 31.699 362.337 31.919C362.11 32.0751 361.997 32.2774 361.997 32.5258C361.997 32.7387 362.096 32.9197 362.295 33.0688C362.565 33.2675 363.494 33.5478 365.084 33.9098C366.681 34.2718 367.795 34.7153 368.427 35.2405C369.052 35.7728 369.364 36.5145 369.364 37.4655C369.364 38.5017 368.931 39.3925 368.065 40.1377C367.199 40.8829 365.918 41.2555 364.222 41.2555C362.682 41.2555 361.461 40.9432 360.56 40.3187C359.665 39.6941 359.08 38.846 358.803 37.7743ZM377.178 29.694V32.0787H375.134V36.6352C375.134 37.5578 375.152 38.0972 375.187 38.2533C375.23 38.4024 375.318 38.5266 375.453 38.626C375.595 38.7253 375.766 38.775 375.964 38.775C376.241 38.775 376.642 38.6792 377.167 38.4876L377.423 40.8084C376.727 41.1065 375.939 41.2555 375.059 41.2555C374.52 41.2555 374.034 41.1668 373.601 40.9894C373.168 40.8048 372.849 40.5706 372.643 40.2867C372.444 39.9957 372.306 39.6054 372.228 39.1157C372.164 38.7679 372.132 38.0653 372.132 37.0078V32.0787H370.758V29.694H372.132V27.4477L375.134 25.7018V29.694H377.178ZM385.801 37.4017L388.782 37.902C388.399 38.995 387.792 39.8289 386.962 40.4038C386.138 40.9716 385.106 41.2555 383.864 41.2555C381.898 41.2555 380.443 40.6132 379.499 39.3286C378.754 38.2995 378.381 37.0007 378.381 35.4322C378.381 33.5585 378.871 32.0929 379.85 31.0354C380.829 29.9708 382.068 29.4385 383.566 29.4385C385.248 29.4385 386.575 29.9956 387.547 31.1099C388.519 32.2171 388.984 33.9169 388.942 36.2093H381.447C381.468 37.0965 381.71 37.7885 382.171 38.2853C382.632 38.775 383.207 39.0199 383.896 39.0199C384.364 39.0199 384.758 38.8921 385.077 38.6366C385.397 38.3811 385.638 37.9694 385.801 37.4017ZM385.971 34.3782C385.95 33.5123 385.727 32.8558 385.301 32.4087C384.875 31.9545 384.357 31.7274 383.746 31.7274C383.094 31.7274 382.554 31.9651 382.128 32.4406C381.702 32.9162 381.493 33.562 381.5 34.3782H385.971ZM394.254 41H391.263V29.694H394.041V31.3015C394.517 30.5421 394.942 30.0418 395.319 29.8004C395.702 29.5591 396.135 29.4385 396.617 29.4385C397.299 29.4385 397.955 29.6266 398.587 30.0027L397.661 32.611C397.157 32.2845 396.688 32.1213 396.255 32.1213C395.837 32.1213 395.482 32.2384 395.191 32.4726C394.9 32.6997 394.669 33.1149 394.499 33.7182C394.336 34.3214 394.254 35.5848 394.254 37.5081V41ZM398.47 29.694H401.653L404.357 37.721L406.997 29.694H410.095L406.103 40.5742L405.39 42.5437C405.127 43.2037 404.875 43.7076 404.634 44.0554C404.4 44.4032 404.126 44.6835 403.814 44.8964C403.509 45.1164 403.129 45.2868 402.675 45.4074C402.228 45.5281 401.72 45.5884 401.153 45.5884C400.578 45.5884 400.014 45.5281 399.46 45.4074L399.194 43.0653C399.662 43.1576 400.084 43.2037 400.461 43.2037C401.156 43.2037 401.671 42.9979 402.004 42.5862C402.338 42.1817 402.593 41.6636 402.771 41.0319L398.47 29.694Z" fill="white"/>
<defs>
<clipPath id="clip0_39_2178">
<rect width="228.931" height="46.8763" fill="white" transform="translate(-0.000183105 1.09033)"/>
</clipPath>
</defs>
</svg>
