<svg width="1366" height="160" viewBox="0 0 1366 160" fill="none" xmlns="http://www.w3.org/2000/svg">
<g clip-path="url(#clip0_186_43)">
<path d="M-1050 60.807L-970.705 65.0737C-891.41 69.6625 -733.283 77.7129 -573.768 95.1823C-415.872 112.33 -257.051 138.091 -99.848 138.091C59.6666 138.091 219.181 112.33 376.384 99.4491C535.205 86.5684 693.101 86.5684 852.616 99.4491C1010.74 112.33 1169.33 138.091 1328.85 155.239C1486.28 172.708 1645.57 180.758 1802.77 181C1962.05 180.758 2119.49 172.708 2200.4 168.119L2279 163.853V-68H2199.7C2120.41 -68 1962.28 -68 1802.77 -68C1644.87 -68 1486.05 -68 1328.85 -68C1169.33 -68 1009.82 -68 852.616 -68C693.795 -68 535.899 -68 376.384 -68C218.256 -68 59.6666 -68 -99.848 -68C-257.282 -68 -416.565 -68 -573.768 -68C-733.051 -68 -890.485 -68 -971.399 -68H-1050V60.807Z" fill="#FCD855"/>
</g>
<defs>
<clipPath id="clip0_186_43">
<rect width="1366" height="160" fill="white"/>
</clipPath>
</defs>
</svg>
