<svg width="53" height="52" viewBox="0 0 53 52" fill="none" xmlns="http://www.w3.org/2000/svg">
<path d="M25.8685 9.53197L25.8685 9.53279C25.7308 11.7821 25.0163 13.7113 24.0137 15.0165C23.0102 16.3227 21.7805 16.941 20.5574 16.8054L20.5564 16.8053C19.3317 16.6711 18.1543 15.7693 17.2908 14.222C16.4335 12.6859 15.9447 10.6018 16.0734 8.33977L16.0735 8.33893C16.1989 6.09059 16.9182 4.16503 17.9301 2.85952C18.9417 1.55436 20.1863 0.928214 21.4166 1.05181C22.6531 1.20184 23.8279 2.11272 24.6822 3.65667C25.5324 5.19327 26.0093 7.27332 25.8685 9.53197ZM32.2612 19.9414L32.2604 19.941C31.1191 19.4424 30.3588 18.2887 30.1433 16.6589C29.9278 15.0291 30.279 13.0041 31.2961 10.9912L31.2983 10.9869C32.3057 8.96043 33.759 7.39718 35.261 6.49056C36.7715 5.57883 38.2372 5.37793 39.3685 5.86203C40.509 6.37381 41.2737 7.53907 41.5001 9.17626C41.7265 10.8136 41.393 12.8426 40.4019 14.8603C39.3691 16.8806 37.9038 18.4399 36.3945 19.3409C34.8743 20.2483 33.4031 20.442 32.2612 19.9414ZM33.2797 51.1062L33.2769 51.1067C31.0346 51.4864 28.9228 50.4258 26.591 48.9212C26.1816 48.657 25.76 48.3757 25.3317 48.0898C24.5849 47.5914 23.8176 47.0792 23.0584 46.6206C21.8451 45.8877 20.5634 45.233 19.2011 44.868C17.8351 44.502 16.3885 44.4392 14.9641 44.4806C14.09 44.5059 13.1789 44.5735 12.2929 44.6391C11.7602 44.6786 11.2365 44.7174 10.7354 44.746C7.95321 44.9047 5.62129 44.764 3.93912 43.2586L3.93916 43.2586L3.93208 43.2524C2.96837 42.4116 2.26679 41.1356 1.93532 39.7388C1.60371 38.3415 1.65974 36.8957 2.12423 35.7381C2.75111 34.1781 4.16985 33.1634 6.02177 32.2628C6.73331 31.9168 7.47665 31.602 8.23932 31.279C8.46505 31.1834 8.69247 31.0871 8.92126 30.989C9.90669 30.5667 10.9068 30.1163 11.8103 29.5782C13 28.8907 14.1614 27.9887 15.2886 27.0728C15.56 26.8523 15.8289 26.6314 16.0963 26.4118C16.9563 25.7054 17.8003 25.0122 18.6586 24.387C20.9241 22.7368 23.0343 21.758 25.2354 22.3478C27.4301 22.9359 28.8055 24.8304 29.9589 27.3785C30.4503 28.4641 30.8822 29.6228 31.3203 30.7981C31.392 30.9905 31.4639 31.1833 31.5362 31.3763C32.044 32.7315 32.5737 34.0948 33.209 35.2927C33.7266 36.2949 34.3693 37.2891 35.0081 38.258C35.0849 38.3745 35.1616 38.4907 35.2381 38.6064C35.8059 39.4656 36.3614 40.3063 36.8475 41.1542C37.9566 43.0888 38.6025 44.8951 38.1996 46.7068C37.9728 47.7245 37.3091 48.7362 36.3877 49.5504C35.4676 50.3634 34.3458 50.9298 33.2797 51.1062ZM4.88059 9.09493C6.19542 8.90485 7.61458 9.47458 8.8676 10.6996C10.1141 11.9182 11.1315 13.7319 11.6059 15.8452C12.0068 17.9817 11.7763 19.9608 11.1096 21.4322C10.4432 22.9029 9.37504 23.8139 8.08727 24.0051C6.78518 24.1983 5.3781 23.6383 4.14253 22.42C2.91143 21.2061 1.91298 19.3901 1.47056 17.2557C1.02863 15.1237 1.25197 13.1415 1.91402 11.6662C2.57603 10.191 3.63906 9.28298 4.88059 9.09493ZM50.0486 21.1976C51.0298 21.9812 51.4965 23.2992 51.3322 24.9078C51.1679 26.5164 50.3702 28.3448 48.9215 29.9702C47.4711 31.5973 45.6984 32.6709 44.0253 33.1066C42.3462 33.5438 40.8476 33.3253 39.8166 32.5069C38.7969 31.6975 38.3274 30.3745 38.4856 28.7676C38.6439 27.1599 39.4338 25.3308 40.8493 23.681C42.3167 22.088 44.1047 21.026 45.7935 20.5939C47.4911 20.1595 49.005 20.3756 50.0486 21.1976Z" fill="#F7F6F4" stroke="black" stroke-width="1.49422"/>
</svg>
