<?xml version="1.0" encoding="UTF-8" standalone="no"?>
<svg
   width="203.48209"
   height="63.275688"
   viewBox="0 0 203.48209 63.275688"
   fill="none"
   version="1.1"
   id="svg10"
   sodipodi:docname="logo.svg"
   xml:space="preserve"
   inkscape:version="1.3.2 (091e20e, 2023-11-25, custom)"
   xmlns:inkscape="http://www.inkscape.org/namespaces/inkscape"
   xmlns:sodipodi="http://sodipodi.sourceforge.net/DTD/sodipodi-0.dtd"
   xmlns="http://www.w3.org/2000/svg"
   xmlns:svg="http://www.w3.org/2000/svg"><sodipodi:namedview
     id="namedview10"
     pagecolor="#ffffff"
     bordercolor="#000000"
     borderopacity="0.25"
     inkscape:showpageshadow="2"
     inkscape:pageopacity="0.0"
     inkscape:pagecheckerboard="0"
     inkscape:deskcolor="#d1d1d1"
     showgrid="false"
     inkscape:zoom="4.3174308"
     inkscape:cx="108.62942"
     inkscape:cy="45.513179"
     inkscape:window-width="1920"
     inkscape:window-height="1017"
     inkscape:window-x="-8"
     inkscape:window-y="-8"
     inkscape:window-maximized="1"
     inkscape:current-layer="svg10" /><path
     d="m 18.022875,27.079215 v -7.0015 l -1.6972,-1.7077 H 9.095415 V 2.147145 l -1.69725,-1.70767 h -6.95869 v 24.93204 l 1.69724,1.7077 z m -17.07422,-2.22 V 0.951775 h 5.94035 v 17.93054 h 8.92747 v 5.9769 z"
     fill="#000000"
     stroke="#000000"
     stroke-width="0.87895"
     stroke-miterlimit="2"
     id="path1" /><path
     d="m 35.793275,27.079215 c 5.6688,0 10.2514,-4.6107 10.2514,-10.3144 V 2.147155 l -1.6973,-1.70767 h -6.9586 v 14.61773 c 0,1.8443 -1.4597,3.3129 -3.2927,3.3129 -0.4752,0 -0.9165,-0.1025 -1.3238,-0.2733 -0.1698,-0.4098 -0.2716,-0.8538 -0.2716,-1.332 V 2.147155 l -1.6972,-1.70767 h -6.9587 v 14.61773 c 0,3.2787 1.5275,6.2159 3.9036,8.0943 1.867,2.3908 4.7862,3.9277 8.0449,3.9277 z m -1.6972,-2.22 c -5.3972,0 -9.7421,-4.3716 -9.7421,-9.802 V 0.951785 h 5.9403 v 14.10543 c 0,2.1175 1.6972,3.8252 3.8018,3.8252 2.1046,0 3.8018,-1.7077 3.8018,-3.8252 V 0.951785 h 5.9404 v 14.10543 c 0,5.3962 -4.3789,9.802 -9.7422,9.802 z"
     fill="#000000"
     stroke="#000000"
     stroke-width="0.87895"
     stroke-miterlimit="2"
     id="path2" /><path
     d="m 66.502675,27.079215 c 6.144,0 11.4054,-4.5424 12.254,-10.7242 l -1.6972,-1.7077 h -7.0945 c -0.7807,2.2542 -2.8513,3.7228 -5.1596,3.7228 -1.0523,0 -2.0706,-0.3074 -2.8853,-0.8539 -0.5431,-0.8197 -0.8486,-1.8443 -0.8486,-2.903 0,-3.0055 2.444,-5.4646 5.4312,-5.4646 1.0523,0 2.0367,0.3074 2.8853,0.8538 0.2376,0.3416 0.4073,0.7173 0.577,1.1271 l 1.6973,1.7077 h 7.0944 c -0.4412,-3.1763 -2.0706,-5.9427 -4.3788,-7.8553 -2.3083,-2.8006 -5.7706,-4.54243 -9.5725,-4.54243 -6.8568,0 -12.3898,5.56703 -12.3898,12.46603 0,3.8593 1.7651,7.343 4.5146,9.6313 2.2743,2.7664 5.7367,4.5424 9.5725,4.5424 z m -1.6973,-2.22 c -6.5513,0 -11.8807,-5.3621 -11.8807,-11.9537 0,-6.5916 5.3294,-11.95373 11.8807,-11.95373 5.8046,0 10.6247,4.16673 11.677,9.66543 h -6.1779 c -0.8826,-2.1517 -3.0211,-3.6886 -5.4991,-3.6886 -3.2926,0 -5.9403,2.664 -5.9403,5.9769 0,3.3129 2.6477,5.9769 5.9403,5.9769 2.478,0 4.6165,-1.537 5.4991,-3.7228 h 6.1779 c -1.0523,5.5329 -5.8724,9.6996 -11.677,9.6996 z"
     fill="#000000"
     stroke="#000000"
     stroke-width="0.87895"
     stroke-miterlimit="2"
     id="path3" /><path
     d="m 86.998575,27.079215 h 6.9587 v -6.899 l 2.8853,5.1913 1.6972,1.7077 h 7.331695 l -6.958295,-12.6026 6.958295,-12.32946 -1.697,-1.70767 h -7.331895 l -2.8853,5.08883 v -3.38116 l -1.6973,-1.70767 h -6.9587 v 24.93203 z m -1.1881,-2.22 V 0.951785 h 5.9403 v 9.52883 l 5.3633,-9.52883 h 6.178395 l -6.653595,11.81713 6.653595,12.0903 h -6.178395 l -5.3633,-9.7679 v 9.7679 z"
     fill="#000000"
     stroke="#000000"
     stroke-width="0.87895"
     stroke-miterlimit="2"
     id="path4" /><path
     d="m 118.96447,27.079215 h 6.958 v -6.3867 l 7.74,-18.54536 -1.698,-1.70767 h -7.06 l -3.666,8.81163 -2.953,-7.10396 -1.698,-1.70767 h -7.06 l 7.739,18.54533 v 6.3867 z m -1.189,-2.22 v -5.9768 l -7.467,-17.93063 h 5.94 l 4.481,10.79253 4.514,-10.79253 h 5.941 l -7.468,17.93063 v 5.9768 z"
     fill="#000000"
     stroke="#000000"
     stroke-width="0.87895"
     stroke-miterlimit="2"
     id="path5" /><path
     d="m 2.136705,62.836215 h 6.95869 v -2.1175 h 0.95045 c 6.24583,0 11.33763,-5.123 11.33763,-11.4073 0,-3.5861 -1.6633,-6.7965 -4.2431,-8.8799 -2.0707,-2.5957 -5.2276,-4.235 -8.79176,-4.235 h -7.90914 v 24.932 z m -1.188078,-2.22 v -23.9074 h 7.399988 c 5.97426,0 10.82836,4.8839 10.82836,10.8949 0,6.011 -4.8541,10.895 -10.82836,10.895 h -1.45963 v 2.1175 z m 5.940358,-8.0944 h 1.45963 c 2.68166,0 4.88806,-2.2199 4.88806,-4.9181 0,-2.7322 -2.2064,-4.9181 -4.88806,-4.9181 h -1.45963 z m 2.20641,-0.5806 v -7.0356 h 0.95045 c 0.74683,0 1.49353,0.2049 2.10453,0.5465 0.3734,0.6489 0.5771,1.3661 0.5771,2.1516 0,2.1517 -1.5614,3.9618 -3.63208,4.3375 z"
     fill="#000000"
     stroke="#000000"
     stroke-width="0.87895"
     stroke-miterlimit="2"
     id="path7" /><path
     d="m 26.801275,62.836215 h 6.9926 l 0.5771,-1.8784 h 6.9587 l 0.0679,0.1707 1.6972,1.7077 h 6.9926 l -7.4678,-24.9321 -1.6973,-1.7076 h -8.3504 l -7.4678,24.932 z m -1.0184,-2.22 7.1624,-23.9074 h 7.6036 l 7.1624,23.9074 h -5.9403 l -0.5771,-1.8784 h -8.8936 l -0.577,1.8784 z m 7.8752,-6.4208 h 6.178 l -3.089,-10.3144 z m 2.8853,-0.5123 1.3239,-4.3375 1.2899,4.3375 z"
     fill="#000000"
     stroke="#000000"
     stroke-width="0.87895"
     stroke-miterlimit="2"
     id="path8" /><path
     d="m 60.112875,62.836215 h 8.5201 l 3.2248,-11.6464 2.7155,9.9387 1.6973,1.7077 h 8.5541 l 6.3477,-24.9321 -1.6973,-1.7076 h -7.2302 l -2.9193,11.4072 -2.6816,-9.6996 -1.6973,-1.7076 h -8.3843 l -3.123,11.3731 -2.444,-9.6655 -1.6972,-1.7076 h -7.2303 l 6.3477,24.932 z m -1.29,-2.22 -6.11,-23.9074 h 6.1779 l 3.8697,15.1983 4.1753,-15.1983 h 7.6375 l 4.1753,15.1983 3.8696,-15.1983 h 6.178 l -6.0761,23.9074 h -7.7394 l -4.2092,-15.3008 -4.2091,15.3008 z"
     fill="#000000"
     stroke="#000000"
     stroke-width="0.87895"
     stroke-miterlimit="2"
     id="path9" /><path
     d="m 105.73247,62.802015 c 1.562,0 3.293,-0.6147 4.685,-1.6393 1.867,-1.3662 2.919,-3.4154 2.919,-5.6354 0,-2.8347 -1.494,-4.7473 -3.225,-6.1476 -1.256,-1.6052 -3.021,-2.6981 -4.413,-3.552 l -0.984,-0.6147 c 0.068,-0.8197 0.849,-0.888 0.849,-0.888 1.222,0 2.342,0.5464 3.496,1.7077 l 4.311,-4.884 -1.697,-1.7077 c -2.309,-2.2199 -4.956,-3.347 -7.808,-3.347 -4.039095,0 -7.331695,3.3812 -7.331695,7.5479 0,2.7323 1.4596,4.6107 3.1568,5.9769 1.187895,1.571 2.952895,2.6298 4.344895,3.4836 l 1.12,0.7173 c 0,0.2732 -0.713,0.7513 -1.12,0.7513 -1.358,0 -3.53,-1.5027 -4.276895,-2.015 l -0.3055,-0.2049 -0.4753,-0.3416 -3.2587,5.0547 -0.3055,0.4099 2.1385,1.9809 0.2037,0.1708 h 0.0339 c 1.3239,0.9221 4.582795,3.1762 7.942795,3.1762 z m -1.697,-2.2199 c -3.191,0 -6.313595,-2.1517 -7.637495,-3.0739 l -0.2716,-0.1707 3.0211,-4.5766 c 0.1019,0.0683 0.2037,0.1366 0.3395,0.2049 0.746795,0.5465 3.055495,2.1175 4.548495,2.1175 0.306,0 1.629,-0.4098 1.629,-1.2636 0,-0.888 -1.154,-1.6736 -3.089,-2.8689 -2.3417,-1.4345 -5.532495,-3.4154 -5.532495,-7.3089 0,-4.3375 3.530495,-7.0356 6.822495,-7.0356 2.58,0 4.956,0.9563 7.095,2.8689 l -3.632,4.0984 c -1.12,-0.9904 -2.241,-1.4686 -3.463,-1.4686 -0.034,0 -1.357,0.1025 -1.357,1.5369 0,0.7514 1.222,1.5711 2.919,2.6298 2.41,1.4686 5.703,3.4837 5.703,7.548 0,2.0833 -0.951,3.9276 -2.716,5.2254 -1.29,0.9563 -2.953,1.537 -4.379,1.537 z"
     fill="#000000"
     stroke="#000000"
     stroke-width="0.87895"
     stroke-miterlimit="2"
     id="path10" /><defs
     id="defs10"><clipPath
       id="clip0_190_75"><rect
         width="63.140202"
         height="63.140202"
         fill="#ffffff"
         transform="rotate(15,73.171,555.78892)"
         id="rect10"
         x="0"
         y="0" /></clipPath></defs><g
     style="fill:none"
     id="g10"
     transform="matrix(1.1632813,0,0,1.1250503,142.86281,3.4493587)"><path
       d="m 25.8685,9.53197 v 8.2e-4 c -0.1377,2.24931 -0.8522,4.17851 -1.8548,5.48371 -1.0035,1.3062 -2.2332,1.9245 -3.4563,1.7889 l -0.001,-10e-5 C 19.3317,16.6711 18.1543,15.7693 17.2908,14.222 16.4335,12.6859 15.9447,10.6018 16.0734,8.33977 l 10e-5,-8.4e-4 c 0.1254,-2.24834 0.8447,-4.1739 1.8566,-5.47941 1.0116,-1.30516 2.2562,-1.931306 3.4865,-1.80771 1.2365,0.15003 2.4113,1.06091 3.2656,2.60486 0.8502,1.5366 1.3271,3.61665 1.1863,5.8753 z m 6.3927,10.40943 -8e-4,-4e-4 c -1.1413,-0.4986 -1.9016,-1.6523 -2.1171,-3.2821 -0.2155,-1.6298 0.1357,-3.6548 1.1528,-5.6677 l 0.0022,-0.0043 c 1.0074,-2.02647 2.4607,-3.58972 3.9627,-4.49634 1.5105,-0.91173 2.9762,-1.11263 4.1075,-0.62853 1.1405,0.51178 1.9052,1.67704 2.1316,3.31423 0.2264,1.63734 -0.1071,3.66634 -1.0982,5.68404 -1.0328,2.0203 -2.4981,3.5796 -4.0074,4.4806 -1.5202,0.9074 -2.9914,1.1011 -4.1333,0.6005 z m 1.0185,31.1648 -0.0028,5e-4 C 31.0346,51.4864 28.9228,50.4258 26.591,48.9212 26.1816,48.657 25.76,48.3757 25.3317,48.0898 24.5849,47.5914 23.8176,47.0792 23.0584,46.6206 21.8451,45.8877 20.5634,45.233 19.2011,44.868 c -1.366,-0.366 -2.8126,-0.4288 -4.237,-0.3874 -0.8741,0.0253 -1.7852,0.0929 -2.6712,0.1585 -0.5327,0.0395 -1.0564,0.0783 -1.5575,0.1069 -2.78219,0.1587 -5.11411,0.018 -6.79628,-1.4874 h 4e-5 L 3.93208,43.2524 C 2.96837,42.4116 2.26679,41.1356 1.93532,39.7388 1.60371,38.3415 1.65974,36.8957 2.12423,35.7381 c 0.62688,-1.56 2.04562,-2.5747 3.89754,-3.4753 0.71154,-0.346 1.45488,-0.6608 2.21755,-0.9838 0.22573,-0.0956 0.45315,-0.1919 0.68194,-0.29 0.98543,-0.4223 1.98554,-0.8727 2.88904,-1.4108 1.1897,-0.6875 2.3511,-1.5895 3.4783,-2.5054 0.2714,-0.2205 0.5403,-0.4414 0.8077,-0.661 0.86,-0.7064 1.704,-1.3996 2.5623,-2.0248 2.2655,-1.6502 4.3757,-2.629 6.5768,-2.0392 2.1947,0.5881 3.5701,2.4826 4.7235,5.0307 0.4914,1.0856 0.9233,2.2443 1.3614,3.4196 0.0717,0.1924 0.1436,0.3852 0.2159,0.5782 0.5078,1.3552 1.0375,2.7185 1.6728,3.9164 0.5176,1.0022 1.1603,1.9964 1.7991,2.9653 0.0768,0.1165 0.1535,0.2327 0.23,0.3484 0.5678,0.8592 1.1233,1.6999 1.6094,2.5478 1.1091,1.9346 1.755,3.7409 1.3521,5.5526 -0.2268,1.0177 -0.8905,2.0294 -1.8119,2.8436 -0.9201,0.813 -2.0419,1.3794 -3.108,1.5558 z M 4.88059,9.09493 c 1.31483,-0.19008 2.73399,0.37965 3.98701,1.60467 1.2465,1.2186 2.2639,3.0323 2.7383,5.1456 0.4009,2.1365 0.1704,4.1156 -0.4963,5.587 -0.6664,1.4707 -1.73456,2.3817 -3.02233,2.5729 C 6.78518,24.1983 5.3781,23.6383 4.14253,22.42 2.91143,21.2061 1.91298,19.3901 1.47056,17.2557 1.02863,15.1237 1.25197,13.1415 1.91402,11.6662 2.57603,10.191 3.63906,9.28298 4.88059,9.09493 Z M 50.0486,21.1976 c 0.9812,0.7836 1.4479,2.1016 1.2836,3.7102 -0.1643,1.6086 -0.962,3.437 -2.4107,5.0624 -1.4504,1.6271 -3.2231,2.7007 -4.8962,3.1364 -1.6791,0.4372 -3.1777,0.2187 -4.2087,-0.5997 -1.0197,-0.8094 -1.4892,-2.1324 -1.331,-3.7393 0.1583,-1.6077 0.9482,-3.4368 2.3637,-5.0866 1.4674,-1.593 3.2554,-2.655 4.9442,-3.0871 1.6976,-0.4344 3.2115,-0.2183 4.2551,0.6037 z"
       fill="#f7f6f4"
       stroke="#000000"
       stroke-width="1.49422"
       id="path1-7" /></g></svg>
