<?xml version="1.0" encoding="UTF-8" standalone="no"?>
<svg
   width="328.04138"
   height="51.642498"
   viewBox="0 0 328.04138 51.642498"
   fill="none"
   version="1.1"
   id="svg10"
   sodipodi:docname="logo-big.svg"
   inkscape:version="1.3.2 (091e20e, 2023-11-25, custom)"
   xmlns:inkscape="http://www.inkscape.org/namespaces/inkscape"
   xmlns:sodipodi="http://sodipodi.sourceforge.net/DTD/sodipodi-0.dtd"
   xmlns="http://www.w3.org/2000/svg"
   xmlns:svg="http://www.w3.org/2000/svg">
  <sodipodi:namedview
     id="namedview10"
     pagecolor="#ffffff"
     bordercolor="#000000"
     borderopacity="0.25"
     inkscape:showpageshadow="2"
     inkscape:pageopacity="0.0"
     inkscape:pagecheckerboard="0"
     inkscape:deskcolor="#d1d1d1"
     inkscape:zoom="3.8601824"
     inkscape:cx="163.98189"
     inkscape:cy="25.775984"
     inkscape:window-width="1920"
     inkscape:window-height="1017"
     inkscape:window-x="-8"
     inkscape:window-y="-8"
     inkscape:window-maximized="1"
     inkscape:current-layer="svg10" />
  <path
     d="m 18.022875,38.695523 v -7.0015 l -1.6972,-1.7077 h -7.23026 v -16.2229 l -1.69725,-1.7076 h -6.95869 v 24.932 l 1.69724,1.7077 z m -17.07422,-2.22 v -23.9074 h 5.94035 v 17.9305 h 8.92747 v 5.9769 z"
     fill="#000000"
     stroke="#000000"
     stroke-width="0.87895"
     stroke-miterlimit="2"
     id="path1" />
  <path
     d="m 35.793275,38.695523 c 5.6688,0 10.2514,-4.6107 10.2514,-10.3144 v -14.6177 l -1.6973,-1.7076 h -6.9586 v 14.6177 c 0,1.8442 -1.4597,3.3128 -3.2927,3.3128 -0.4752,0 -0.9165,-0.1024 -1.3238,-0.2732 -0.1698,-0.4098 -0.2716,-0.8538 -0.2716,-1.332 v -14.6177 l -1.6972,-1.7076 h -6.9587 v 14.6177 c 0,3.2787 1.5275,6.2159 3.9036,8.0943 1.867,2.3908 4.7862,3.9277 8.0449,3.9277 z m -1.6972,-2.22 c -5.3972,0 -9.7421,-4.3716 -9.7421,-9.802 v -14.1054 h 5.9403 v 14.1054 c 0,2.1175 1.6972,3.8251 3.8018,3.8251 2.1046,0 3.8018,-1.7076 3.8018,-3.8251 v -14.1054 h 5.9404 v 14.1054 c 0,5.3962 -4.3789,9.802 -9.7422,9.802 z"
     fill="#000000"
     stroke="#000000"
     stroke-width="0.87895"
     stroke-miterlimit="2"
     id="path2" />
  <path
     d="m 66.502675,38.695523 c 6.144,0 11.4054,-4.5424 12.254,-10.7242 l -1.6972,-1.7077 h -7.0945 c -0.7807,2.2541 -2.8513,3.7227 -5.1596,3.7227 -1.0523,0 -2.0706,-0.3073 -2.8853,-0.8538 -0.5431,-0.8197 -0.8486,-1.8443 -0.8486,-2.903 0,-3.0055 2.444,-5.4646 5.4312,-5.4646 1.0523,0 2.0367,0.3074 2.8853,0.8538 0.2376,0.3416 0.4073,0.7173 0.577,1.1271 l 1.6973,1.7077 h 7.0944 c -0.4412,-3.1763 -2.0706,-5.9427 -4.3788,-7.8553 -2.3083,-2.8006 -5.7706,-4.5424 -9.5725,-4.5424 -6.8568,0 -12.3898,5.567 -12.3898,12.466 0,3.8593 1.7651,7.343 4.5146,9.6313 2.2743,2.7664 5.7367,4.5424 9.5725,4.5424 z m -1.6973,-2.22 c -6.5513,0 -11.8807,-5.3621 -11.8807,-11.9537 0,-6.5916 5.3294,-11.9537 11.8807,-11.9537 5.8046,0 10.6247,4.1667 11.677,9.6654 h -6.1779 c -0.8826,-2.1517 -3.0211,-3.6886 -5.4991,-3.6886 -3.2926,0 -5.9403,2.664 -5.9403,5.9769 0,3.3129 2.6477,5.9768 5.9403,5.9768 2.478,0 4.6165,-1.5369 5.4991,-3.7227 h 6.1779 c -1.0523,5.5329 -5.8724,9.6996 -11.677,9.6996 z"
     fill="#000000"
     stroke="#000000"
     stroke-width="0.87895"
     stroke-miterlimit="2"
     id="path3" />
  <path
     d="m 86.998575,38.695523 h 6.9587 v -6.899 l 2.8853,5.1913 1.6972,1.7077 h 7.331695 l -6.958295,-12.6027 6.958295,-12.3294 -1.697,-1.7076 h -7.331895 l -2.8853,5.0888 v -3.3812 l -1.6973,-1.7076 h -6.9587 v 24.932 z m -1.1881,-2.22 v -23.9074 h 5.9403 v 9.5288 l 5.3633,-9.5288 h 6.178395 l -6.653595,11.8171 6.653595,12.0903 h -6.178395 l -5.3633,-9.7679 v 9.7679 z"
     fill="#000000"
     stroke="#000000"
     stroke-width="0.87895"
     stroke-miterlimit="2"
     id="path4" />
  <path
     d="m 118.96447,38.695523 h 6.958 v -6.3867 l 7.74,-18.5454 -1.698,-1.7076 h -7.06 l -3.666,8.8116 -2.953,-7.104 -1.698,-1.7076 h -7.06 l 7.739,18.5453 v 6.3867 z m -1.189,-2.22 v -5.9769 l -7.467,-17.9305 h 5.94 l 4.481,10.7925 4.514,-10.7925 h 5.941 l -7.468,17.9305 v 5.9769 z"
     fill="#000000"
     stroke="#000000"
     stroke-width="0.87895"
     stroke-miterlimit="2"
     id="path5" />
  <g
     clip-path="url(#clip0_185_26)"
     id="g6"
     transform="translate(-0.560525,-13.289677)">
    <path
       d="m 175.869,22.532 -0.001,8e-4 c -0.137,2.2493 -0.852,4.1785 -1.854,5.4837 -1.004,1.3062 -2.234,1.9245 -3.457,1.7889 l -10e-4,-10e-5 c -1.224,-0.1342 -2.402,-1.036 -3.265,-2.5833 -0.857,-1.5361 -1.346,-3.6202 -1.218,-5.8822 v -9e-4 c 0.126,-2.2483 0.845,-4.1739 1.857,-5.4794 1.012,-1.3051 2.256,-1.9313 3.487,-1.8077 1.236,0.15 2.411,1.0609 3.265,2.6049 0.85,1.5366 1.327,3.6166 1.187,5.8753 z m 6.392,10.4094 -0.001,-4e-4 c -1.141,-0.4986 -1.901,-1.6523 -2.117,-3.2821 -0.215,-1.6298 0.136,-3.6548 1.153,-5.6677 l 0.002,-0.0043 c 1.008,-2.0265 2.461,-3.5897 3.963,-4.4963 1.51,-0.9118 2.976,-1.1127 4.108,-0.6286 1.14,0.5118 1.905,1.6771 2.131,3.3143 0.227,1.6373 -0.107,3.6663 -1.098,5.684 -1.033,2.0203 -2.498,3.5796 -4.008,4.4806 -1.52,0.9074 -2.991,1.1011 -4.133,0.6005 z m 1.019,31.1648 -0.003,5e-4 c -2.242,0.3797 -4.354,-0.6809 -6.686,-2.1855 -0.409,-0.2642 -0.831,-0.5455 -1.259,-0.8314 -0.747,-0.4984 -1.514,-1.0106 -2.274,-1.4692 -1.213,-0.7329 -2.495,-1.3876 -3.857,-1.7526 -1.366,-0.366 -2.812,-0.4288 -4.237,-0.3874 -0.874,0.0253 -1.785,0.0929 -2.671,0.1585 -0.533,0.0395 -1.057,0.0783 -1.558,0.1069 -2.782,0.1587 -5.114,0.018 -6.796,-1.4874 v 0 l -0.007,-0.0062 c -0.964,-0.8408 -1.665,-2.1168 -1.997,-3.5136 -0.331,-1.3973 -0.275,-2.8431 0.189,-4.0007 0.627,-1.56 2.046,-2.5747 3.898,-3.4753 0.711,-0.346 1.455,-0.6608 2.217,-0.9838 0.226,-0.0956 0.453,-0.1919 0.682,-0.29 0.986,-0.4223 1.986,-0.8727 2.889,-1.4108 1.19,-0.6875 2.351,-1.5895 3.479,-2.5054 0.271,-0.2205 0.54,-0.4414 0.807,-0.661 0.86,-0.7064 1.704,-1.3996 2.563,-2.0248 2.265,-1.6502 4.375,-2.629 6.576,-2.0392 2.195,0.5881 3.57,2.4826 4.724,5.0307 0.491,1.0856 0.923,2.2443 1.361,3.4196 0.072,0.1924 0.144,0.3852 0.216,0.5782 0.508,1.3552 1.038,2.7185 1.673,3.9164 0.518,1.0022 1.16,1.9964 1.799,2.9653 0.077,0.1165 0.154,0.2327 0.23,0.3484 0.568,0.8592 1.123,1.6999 1.609,2.5478 1.11,1.9346 1.755,3.7409 1.353,5.5526 -0.227,1.0177 -0.891,2.0294 -1.812,2.8436 -0.92,0.813 -2.042,1.3794 -3.108,1.5558 z M 154.881,22.0949 c 1.314,-0.1901 2.734,0.3797 3.987,1.6047 1.246,1.2186 2.264,3.0323 2.738,5.1456 0.401,2.1365 0.17,4.1156 -0.496,5.587 -0.667,1.4707 -1.735,2.3817 -3.023,2.5729 -1.302,0.1932 -2.709,-0.3668 -3.944,-1.5851 -1.232,-1.2139 -2.23,-3.0299 -2.672,-5.1643 -0.442,-2.132 -0.219,-4.1142 0.443,-5.5895 0.662,-1.4752 1.725,-2.3832 2.967,-2.5713 z m 45.168,12.1027 c 0.981,0.7836 1.447,2.1016 1.283,3.7102 -0.164,1.6086 -0.962,3.437 -2.411,5.0624 -1.45,1.6271 -3.223,2.7007 -4.896,3.1364 -1.679,0.4372 -3.177,0.2187 -4.208,-0.5997 -1.02,-0.8094 -1.49,-2.1324 -1.331,-3.7393 0.158,-1.6077 0.948,-3.4368 2.363,-5.0866 1.468,-1.593 3.256,-2.655 4.945,-3.0871 1.697,-0.4344 3.211,-0.2183 4.255,0.6037 z"
       fill="#f7f6f4"
       stroke="#000000"
       stroke-width="1.49422"
       id="path6" />
  </g>
  <path
     d="m 216.20647,38.746723 h 6.958 v -2.1175 h 0.951 c 6.246,0 11.337,-5.123 11.337,-11.4073 0,-3.5861 -1.663,-6.7965 -4.243,-8.8799 -2.07,-2.5956 -5.227,-4.235 -8.792,-4.235 h -7.909 v 24.9321 z m -1.189,-2.2199 v -23.9075 h 7.4 c 5.975,0 10.829,4.884 10.829,10.895 0,6.011 -4.854,10.8949 -10.829,10.8949 h -1.459 v 2.1176 z m 5.941,-8.0944 h 1.459 c 2.682,0 4.889,-2.22 4.889,-4.9181 0,-2.7323 -2.207,-4.9181 -4.889,-4.9181 h -1.459 z m 2.206,-0.5806 v -7.0357 h 0.951 c 0.746,0 1.493,0.205 2.104,0.5465 0.374,0.6489 0.577,1.3661 0.577,2.1517 0,2.1516 -1.561,3.9618 -3.632,4.3375 z"
     fill="#000000"
     stroke="#000000"
     stroke-width="0.87895"
     stroke-miterlimit="2"
     id="path7" />
  <path
     d="m 240.87047,38.746723 h 6.993 l 0.577,-1.8784 h 6.958 l 0.068,0.1708 1.698,1.7076 h 6.992 l -7.468,-24.932 -1.697,-1.7077 h -8.35 l -7.468,24.9321 z m -1.018,-2.2199 7.162,-23.9075 h 7.604 l 7.162,23.9075 h -5.94 l -0.577,-1.8785 h -8.894 l -0.577,1.8785 z m 7.875,-6.4209 h 6.178 l -3.089,-10.3144 z m 2.885,-0.5123 1.324,-4.3375 1.29,4.3375 z"
     fill="#000000"
     stroke="#000000"
     stroke-width="0.87895"
     stroke-miterlimit="2"
     id="path8" />
  <path
     d="m 274.18247,38.746723 h 8.52 l 3.225,-11.6463 2.715,9.9387 1.697,1.7076 h 8.555 l 6.347,-24.932 -1.697,-1.7077 h -7.23 l -2.92,11.4073 -2.681,-9.6996 -1.697,-1.7077 h -8.385 l -3.123,11.3731 -2.444,-9.6654 -1.697,-1.7077 h -7.23 l 6.347,24.9321 z m -1.29,-2.2199 -6.11,-23.9075 h 6.178 l 3.869,15.1983 4.176,-15.1983 h 7.637 l 4.175,15.1983 3.87,-15.1983 h 6.178 l -6.076,23.9075 h -7.739 l -4.21,-15.3008 -4.209,15.3008 z"
     fill="#000000"
     stroke="#000000"
     stroke-width="0.87895"
     stroke-miterlimit="2"
     id="path9" />
  <path
     d="m 319.80247,38.712623 c 1.561,0 3.292,-0.6148 4.684,-1.6394 1.867,-1.3661 2.919,-3.4153 2.919,-5.6353 0,-2.8348 -1.493,-4.7474 -3.224,-6.1477 -1.256,-1.6052 -3.022,-2.6981 -4.413,-3.5519 l -0.985,-0.6148 c 0.068,-0.8197 0.849,-0.888 0.849,-0.888 1.222,0 2.342,0.5465 3.496,1.7077 l 4.311,-4.8839 -1.697,-1.7077 c -2.308,-2.22 -4.956,-3.3471 -7.807,-3.3471 -4.04,0 -7.332,3.3812 -7.332,7.548 0,2.7322 1.459,4.6107 3.156,5.9768 1.189,1.5711 2.954,2.6298 4.345,3.4837 l 1.121,0.7172 c 0,0.2732 -0.713,0.7514 -1.121,0.7514 -1.357,0 -3.53,-1.5028 -4.277,-2.0151 l -0.305,-0.2049 -0.475,-0.3415 -3.259,5.0547 -0.306,0.4098 2.139,1.9809 0.204,0.1708 h 0.034 c 1.323,0.9221 4.582,3.1763 7.943,3.1763 z m -1.698,-2.22 c -3.19,0 -6.313,-2.1517 -7.637,-3.0738 l -0.272,-0.1708 3.021,-4.5766 c 0.102,0.0683 0.204,0.1367 0.34,0.205 0.747,0.5464 3.055,2.1175 4.548,2.1175 0.306,0 1.63,-0.4099 1.63,-1.2637 0,-0.888 -1.154,-1.6735 -3.089,-2.8689 -2.342,-1.4344 -5.533,-3.4153 -5.533,-7.3088 0,-4.3375 3.53,-7.0357 6.823,-7.0357 2.58,0 4.956,0.9563 7.094,2.8689 l -3.632,4.0984 c -1.12,-0.9904 -2.24,-1.4685 -3.462,-1.4685 -0.034,0 -1.358,0.1024 -1.358,1.5369 0,0.7513 1.222,1.571 2.919,2.6298 2.41,1.4686 5.703,3.4836 5.703,7.5479 0,2.0834 -0.951,3.9277 -2.716,5.2255 -1.29,0.9563 -2.953,1.5369 -4.379,1.5369 z"
     fill="#000000"
     stroke="#000000"
     stroke-width="0.87895"
     stroke-miterlimit="2"
     id="path10" />
  <defs
     id="defs10">
    <clipPath
       id="clip0_185_26">
      <rect
         width="63.140202"
         height="63.140202"
         fill="#ffffff"
         transform="rotate(15,76.1615,578.50403)"
         id="rect10"
         x="0"
         y="0" />
    </clipPath>
  </defs>
</svg>
