<?xml version="1.0" encoding="UTF-8" standalone="no"?>
<!-- Generator: Adobe Illustrator 28.1.0, SVG Export Plug-In . SVG Version: 6.00 Build 0)  -->

<svg
   version="1.1"
   id="Vrstva_1"
   x="0px"
   y="0px"
   fill="currentColor"
   viewBox="0 0 77.400002 44.099998"
   xml:space="preserve"
   sodipodi:docname="logo.svg"
   width="77.400002"
   height="44.099998"
   inkscape:version="1.3.2 (091e20e, 2023-11-25, custom)"
   xmlns:inkscape="http://www.inkscape.org/namespaces/inkscape"
   xmlns:sodipodi="http://sodipodi.sourceforge.net/DTD/sodipodi-0.dtd"
   xmlns="http://www.w3.org/2000/svg"
   xmlns:svg="http://www.w3.org/2000/svg"><defs
   id="defs21" /><sodipodi:namedview
   id="namedview21"
   pagecolor="#ffffff"
   bordercolor="#000000"
   borderopacity="0.25"
   inkscape:showpageshadow="2"
   inkscape:pageopacity="0.0"
   inkscape:pagecheckerboard="0"
   inkscape:deskcolor="#d1d1d1"
   inkscape:zoom="1.4660714"
   inkscape:cx="36.151035"
   inkscape:cy="63.775883"
   inkscape:window-width="1920"
   inkscape:window-height="1017"
   inkscape:window-x="-8"
   inkscape:window-y="-8"
   inkscape:window-maximized="1"
   inkscape:current-layer="Vrstva_1" />
<style
   type="text/css"
   id="style1">
	.st0{fill:none;stroke:#000000;stroke-miterlimit:10;}
</style>
<g
   id="g10"
   transform="translate(-107.5,-216)">
	<g
   id="g9">
		<path
   d="m 112.8,245.5 c -0.1,-0.3 -0.2,-0.6 -0.4,-0.9 -0.2,-0.4 -0.4,-0.5 -1.1,-0.5 H 110 c -0.3,0 -0.4,0 -0.4,0.4 v 2.8 h 1.5 c 0.9,0 0.9,-0.1 1.1,-1 h 0.4 v 2.5 h -0.4 c -0.2,-0.8 -0.2,-1 -1.1,-1 h -1.5 v 2.1 c 0,1 0.1,1.1 1.2,1.2 v 0.3 h -3.3 v -0.3 c 1,-0.1 1.1,-0.2 1.1,-1.2 v -4.7 c 0,-1 -0.1,-1.1 -1.1,-1.2 v -0.3 h 3.8 c 1.1,0 1.5,0 1.7,0 0,0.4 0.1,1.3 0.1,1.8 z"
   id="path1" />
		<path
   d="m 120.5,251.4 v -0.3 c 0.8,-0.1 0.9,-0.2 0.7,-0.7 -0.2,-0.5 -0.4,-1.1 -0.6,-1.8 H 118 c -0.2,0.5 -0.4,1 -0.5,1.5 -0.3,0.8 -0.1,0.9 0.9,1 v 0.3 h -2.8 v -0.3 c 0.8,-0.1 0.9,-0.2 1.4,-1.3 l 2.5,-6.3 0.4,-0.1 c 0.8,2.1 1.6,4.3 2.3,6.4 0.4,1 0.5,1.1 1.3,1.2 v 0.3 h -3 z m -1.2,-6.4 c -0.4,1 -0.8,2.1 -1.2,3.1 h 2.2 z"
   id="path2" />
		<path
   d="m 130.3,247.2 c 1.2,0.2 2.1,0.7 2.1,1.9 0,0.8 -0.5,1.5 -1.2,1.8 -0.6,0.3 -1.2,0.5 -2.1,0.5 h -3 v -0.3 c 1,-0.1 1.1,-0.2 1.1,-1.2 v -4.8 c 0,-1 -0.1,-1.1 -1.1,-1.2 v -0.3 h 3.1 c 0.9,0 1.5,0.2 1.8,0.4 0.4,0.3 0.7,0.7 0.7,1.3 0.2,1.2 -0.7,1.7 -1.4,1.9 z m -1.4,-0.1 c 1.3,0 1.9,-0.5 1.9,-1.5 0,-0.8 -0.5,-1.5 -1.7,-1.5 -0.3,0 -0.6,0 -0.7,0.1 -0.1,0.1 -0.1,0.2 -0.1,0.6 v 2.3 z m -0.6,2.8 c 0,0.9 0.2,1.1 1.1,1.1 0.9,0 1.8,-0.5 1.8,-1.8 0,-1.2 -0.9,-1.8 -2.3,-1.8 h -0.6 z"
   id="path3" />
		<path
   d="m 135.8,251.4 v -0.3 c 1,-0.1 1.1,-0.2 1.1,-1.2 v -4.8 c 0,-1 -0.1,-1.1 -1.1,-1.2 v -0.3 h 3.2 v 0.3 c -1,0.1 -1.1,0.2 -1.1,1.2 v 4.8 c 0,1 0.1,1.1 1.1,1.2 v 0.3 z"
   id="path4" />
		<path
   d="m 146.5,251.4 v -0.3 c 0.8,-0.1 0.9,-0.2 0.7,-0.7 -0.2,-0.5 -0.4,-1.1 -0.6,-1.8 H 144 c -0.2,0.5 -0.4,1 -0.5,1.5 -0.3,0.8 -0.1,0.9 0.9,1 v 0.3 h -2.8 v -0.3 c 0.8,-0.1 0.9,-0.2 1.4,-1.3 l 2.5,-6.3 0.4,-0.1 c 0.8,2.1 1.6,4.3 2.3,6.4 0.4,1 0.5,1.1 1.3,1.2 v 0.3 h -3 z m -1.2,-6.4 c -0.4,1 -0.8,2.1 -1.2,3.1 h 2.2 z"
   id="path5" />
		<path
   d="m 160.5,244 c -0.8,0.1 -1,0.2 -1.1,0.8 0,0.4 0,0.9 0,2 v 4.8 h -0.5 l -5.1,-6.3 v 3 c 0,1.1 0,1.6 0.1,2 0,0.6 0.3,0.8 1.2,0.9 v 0.3 h -2.9 v -0.3 c 0.7,-0.1 1,-0.2 1.1,-0.8 0,-0.4 0.1,-0.9 0.1,-2 v -3.1 c 0,-0.3 0,-0.5 -0.2,-0.8 -0.2,-0.3 -0.5,-0.4 -1.1,-0.4 v -0.3 h 1.8 l 5.1,6 v -2.9 c 0,-1.1 0,-1.6 -0.1,-2 0,-0.5 -0.3,-0.7 -1.3,-0.8 v -0.3 h 3 v 0.2 z"
   id="path6" />
		<path
   d="m 167.8,243.5 c 2.1,0 3.9,1.6 3.9,4 0,2.6 -1.8,4.2 -4,4.2 -2.3,0 -4,-1.8 -4,-4 0,-2.2 1.6,-4.2 4.1,-4.2 z m -0.3,0.4 c -1.3,0 -2.6,1.1 -2.6,3.4 0,2.2 1.2,3.9 2.9,3.9 1.5,0 2.5,-1.1 2.5,-3.4 0.1,-2.6 -1.2,-3.9 -2.8,-3.9 z"
   id="path7" />
		<path
   d="m 176.7,243.1 c -0.6,0.2 -0.9,0.6 -0.9,1 0,0.4 0.4,0.6 0.8,0.6 0.1,0 0.2,0.2 0.2,0.3 0,0.3 -0.3,0.5 -0.6,0.5 -0.5,0 -1,-0.4 -1,-1.2 0,-0.9 0.7,-1.4 1.5,-1.6 z"
   id="path8" />
		<path
   d="m 184.3,245.5 c -0.2,-0.8 -0.5,-1.6 -1.7,-1.6 -0.9,0 -1.3,0.7 -1.3,1.3 0,0.8 0.5,1.2 1.5,1.8 1.4,0.7 2.1,1.3 2.1,2.4 0,1.3 -1.1,2.2 -2.6,2.2 -0.7,0 -1.3,-0.2 -1.8,-0.4 -0.1,-0.3 -0.2,-1.2 -0.3,-1.8 l 0.4,-0.1 c 0.2,0.8 0.8,1.8 2,1.8 0.9,0 1.4,-0.6 1.4,-1.4 0,-0.9 -0.5,-1.3 -1.5,-1.9 -1.3,-0.7 -2,-1.3 -2,-2.4 0,-1.1 0.9,-2.1 2.5,-2.1 0.7,0 1.3,0.2 1.6,0.2 0,0.4 0.1,0.9 0.2,1.7 z"
   id="path9" />
	</g>
</g>
<g
   id="g11"
   transform="translate(-107.5,-216)">
	<path
   d="m 141,225.2 v -0.5 h 3.9 c 0.2,0 0.2,0 0.2,-0.2 v -0.6 c 0,-0.1 0,-0.2 -0.2,-0.3 -0.3,-0.2 -0.5,-0.4 -0.6,-0.7 -0.2,-0.6 -0.1,-1.1 0.4,-1.5 0.7,-0.6 1.8,-0.4 2.2,0.5 0.3,0.5 0.1,1.2 -0.4,1.6 -0.1,0.1 -0.2,0.1 -0.3,0.2 -0.1,0 -0.1,0.1 -0.1,0.2 v 0.6 c 0,0.1 0,0.2 0.2,0.2 h 3.9 v 0.5 h -3.8 c -0.2,0 -0.2,0 -0.2,0.2 0,0.9 0,1.9 0.1,2.8 0,1 0,2 0.1,3 0,0.2 0.1,0.5 0.3,0.7 0.2,0.2 0.4,0.2 0.6,0.2 0.3,0 0.6,-0.2 0.8,-0.3 0.2,-0.1 0.4,-0.2 0.6,-0.4 0.3,-0.3 0.4,-0.6 0.3,-1 0,-0.2 -0.1,-0.3 -0.2,-0.4 0.9,-0.4 1.6,-1 2.2,-1.8 0.1,0.2 0.1,0.4 0.1,0.6 0,0.6 -0.2,1.1 -0.4,1.7 -0.1,0.2 -0.2,0.4 -0.3,0.6 -0.1,0 -0.2,0 -0.3,0 -0.1,0 -0.2,0 -0.3,0.2 -0.4,0.6 -0.9,1.1 -1.5,1.5 -0.5,0.3 -1,0.5 -1.5,0.7 -0.3,0.1 -0.6,0.2 -0.9,0.3 -0.1,0 -0.2,0.1 -0.4,0.2 -0.4,-0.3 -0.8,-0.4 -1.2,-0.5 -0.5,-0.2 -1,-0.4 -1.5,-0.7 -0.6,-0.4 -1,-0.9 -1.5,-1.5 -0.1,-0.2 -0.3,-0.2 -0.5,-0.2 0,0 -0.1,0 -0.2,0 0,0 0,-0.1 -0.1,-0.1 -0.2,-0.4 -0.5,-0.9 -0.6,-1.4 -0.1,-0.5 -0.1,-0.9 0,-1.4 0.3,0.4 0.6,0.7 1,1 0.4,0.3 0.8,0.6 1.2,0.7 -0.1,0.2 -0.2,0.3 -0.2,0.4 -0.1,0.3 0,0.5 0.2,0.8 0.2,0.3 0.5,0.5 0.8,0.6 0.2,0.1 0.5,0.2 0.8,0.3 0.2,0 0.5,0 0.7,-0.2 0.2,-0.1 0.2,-0.3 0.2,-0.5 0,-0.2 0,-0.3 0,-0.5 0,-1.2 0,-2.4 0.1,-3.6 0,-0.6 0,-1.2 0,-1.9 0,-0.2 0,-0.2 -0.2,-0.2 l -3.5,0.1 c 0.1,0 0.1,0 0,0 z"
   id="path10" />
</g>
<g
   id="g21"
   transform="translate(-107.5,-216)">
	<g
   id="g20">
		<path
   d="m 125.1,260 c -0.1,0 -0.1,0 -0.2,0 -0.5,0 -0.7,-0.2 -1,-0.5 -0.2,-0.3 -0.5,-0.7 -0.7,-1 -0.1,-0.2 -0.2,-0.2 -0.5,-0.2 h -0.2 v 1 c 0,0.5 0.1,0.6 0.6,0.6 v 0.2 h -1.7 v -0.2 c 0.5,-0.1 0.6,-0.1 0.6,-0.6 v -2.5 c 0,-0.5 -0.1,-0.6 -0.6,-0.6 V 256 h 1.6 c 0.5,0 0.8,0.1 1,0.2 0.3,0.2 0.4,0.4 0.4,0.8 0,0.5 -0.3,0.9 -0.8,1.1 0.1,0.2 0.4,0.6 0.6,0.9 0.2,0.3 0.4,0.5 0.5,0.6 0.2,0.2 0.3,0.3 0.5,0.3 z m -2.3,-2 c 0.3,0 0.5,0 0.7,-0.2 0.2,-0.2 0.3,-0.4 0.3,-0.8 0,-0.7 -0.4,-0.9 -0.9,-0.9 -0.2,0 -0.3,0 -0.3,0.1 -0.1,0 -0.1,0.1 -0.1,0.3 v 1.5 z"
   id="path11" />
		<path
   d="m 126.5,260 v -0.2 c 0.5,-0.1 0.6,-0.1 0.6,-0.6 v -2.5 c 0,-0.5 -0.1,-0.6 -0.6,-0.6 v -0.2 h 1.7 v 0.2 c -0.5,0.1 -0.6,0.1 -0.6,0.6 v 2.5 c 0,0.5 0.1,0.6 0.6,0.6 v 0.2 z"
   id="path12" />
		<path
   d="m 132.1,256.8 c -0.1,-0.4 -0.3,-0.8 -0.9,-0.8 -0.5,0 -0.7,0.4 -0.7,0.7 0,0.4 0.3,0.7 0.8,0.9 0.8,0.4 1.1,0.7 1.1,1.3 0,0.7 -0.6,1.2 -1.4,1.2 -0.4,0 -0.7,-0.1 -1,-0.2 0,-0.2 -0.1,-0.6 -0.2,-0.9 l 0.2,-0.1 c 0.1,0.4 0.4,1 1.1,1 0.5,0 0.7,-0.3 0.7,-0.7 0,-0.5 -0.3,-0.7 -0.8,-1 -0.7,-0.4 -1,-0.7 -1,-1.2 0,-0.6 0.5,-1.1 1.3,-1.1 0.4,0 0.7,0.1 0.8,0.1 0,0.2 0,0.5 0.1,0.9 z"
   id="path13" />
		<path
   d="m 137.6,256.9 c -0.1,-0.2 -0.1,-0.4 -0.2,-0.5 -0.1,-0.2 -0.2,-0.2 -0.5,-0.2 h -0.6 v 3 c 0,0.5 0,0.6 0.6,0.6 v 0.2 h -1.8 v -0.2 c 0.6,0 0.6,-0.1 0.6,-0.6 v -3 h -0.6 c -0.3,0 -0.4,0 -0.6,0.2 -0.1,0.1 -0.1,0.3 -0.2,0.5 h -0.2 c 0,-0.4 0.1,-0.8 0.1,-1.1 h 0.1 c 0.1,0.2 0.2,0.1 0.3,0.1 h 2.5 c 0.2,0 0.2,0 0.3,-0.1 h 0.2 c 0,0.3 0,0.7 0.1,1.1 z"
   id="path14" />
		<path
   d="m 141.6,255.8 c 1.1,0 2,0.8 2,2.1 0,1.3 -0.9,2.2 -2.1,2.2 -1.2,0 -2.1,-0.9 -2.1,-2.1 0.1,-1.2 0.9,-2.2 2.2,-2.2 z m -0.1,0.2 c -0.7,0 -1.3,0.6 -1.3,1.8 0,1.2 0.6,2 1.5,2 0.8,0 1.3,-0.6 1.3,-1.8 0,-1.3 -0.7,-2 -1.5,-2 z"
   id="path15" />
		<path
   d="m 149.2,260 c -0.1,0 -0.1,0 -0.2,0 -0.5,0 -0.7,-0.2 -1,-0.5 -0.2,-0.3 -0.5,-0.7 -0.7,-1 -0.1,-0.2 -0.2,-0.2 -0.5,-0.2 h -0.2 v 1 c 0,0.5 0.1,0.6 0.6,0.6 v 0.2 h -1.7 v -0.2 c 0.5,-0.1 0.6,-0.1 0.6,-0.6 v -2.5 c 0,-0.5 -0.1,-0.6 -0.6,-0.6 V 256 h 1.6 c 0.5,0 0.8,0.1 1,0.2 0.3,0.2 0.4,0.4 0.4,0.8 0,0.5 -0.3,0.9 -0.8,1.1 0.1,0.2 0.4,0.6 0.6,0.9 0.2,0.3 0.4,0.5 0.5,0.6 0.2,0.2 0.3,0.3 0.5,0.3 z m -2.3,-2 c 0.3,0 0.5,0 0.7,-0.2 0.2,-0.2 0.3,-0.4 0.3,-0.8 0,-0.7 -0.4,-0.9 -0.9,-0.9 -0.2,0 -0.3,0 -0.3,0.1 -0.1,0 -0.1,0.1 -0.1,0.3 v 1.5 z"
   id="path16" />
		<path
   d="m 152.7,260 v -0.2 c 0.4,0 0.5,-0.1 0.4,-0.4 -0.1,-0.2 -0.2,-0.6 -0.3,-1 h -1.4 c -0.1,0.3 -0.2,0.5 -0.3,0.8 -0.1,0.4 0,0.5 0.5,0.5 v 0.2 h -1.4 v -0.2 c 0.4,0 0.5,-0.1 0.7,-0.7 l 1.3,-3.3 h 0.2 c 0.4,1.1 0.8,2.3 1.2,3.3 0.2,0.5 0.3,0.6 0.7,0.6 v 0.2 h -1.6 z m -0.7,-3.4 c -0.2,0.5 -0.4,1.1 -0.6,1.6 h 1.2 z"
   id="path17" />
		<path
   d="m 159.9,256.1 c -0.4,0 -0.5,0.1 -0.6,0.4 0,0.2 0,0.5 0,1 v 2.5 h -0.2 l -2.7,-3.3 v 1.6 c 0,0.6 0,0.8 0,1 0,0.3 0.2,0.4 0.6,0.5 v 0.2 h -1.5 v -0.2 c 0.4,0 0.5,-0.1 0.6,-0.4 0,-0.2 0,-0.5 0,-1.1 v -1.6 c 0,-0.2 0,-0.3 -0.1,-0.4 -0.1,-0.2 -0.3,-0.2 -0.6,-0.2 v -0.2 h 0.9 l 2.7,3.1 v -1.5 c 0,-0.6 0,-0.9 0,-1 0,-0.3 -0.2,-0.4 -0.7,-0.4 v -0.2 h 1.5 v 0.2 z"
   id="path18" />
		<path
   d="m 164.9,256.9 c -0.1,-0.2 -0.1,-0.4 -0.2,-0.5 -0.1,-0.2 -0.2,-0.2 -0.5,-0.2 h -0.6 v 3 c 0,0.5 0,0.6 0.6,0.6 v 0.2 h -1.8 v -0.2 c 0.6,0 0.6,-0.1 0.6,-0.6 v -3 h -0.6 c -0.3,0 -0.4,0 -0.6,0.2 -0.1,0.1 -0.1,0.3 -0.2,0.5 h -0.2 c 0,-0.4 0.1,-0.8 0.1,-1.1 h 0.1 c 0.1,0.2 0.2,0.1 0.3,0.1 h 2.5 c 0.2,0 0.2,0 0.3,-0.1 h 0.2 c 0,0.3 0,0.7 0.1,1.1 z"
   id="path19" />
		<path
   d="m 170.1,259 c 0,0.2 -0.2,0.8 -0.3,1 h -3 v -0.2 c 0.6,0 0.6,-0.1 0.6,-0.6 v -2.5 c 0,-0.6 -0.1,-0.6 -0.5,-0.6 v -0.2 h 1.9 c 0.6,0 0.8,0 0.9,0 0,0.2 0,0.6 0.1,1 h -0.2 c -0.1,-0.2 -0.1,-0.3 -0.2,-0.5 -0.1,-0.2 -0.2,-0.3 -0.6,-0.3 h -0.6 c -0.2,0 -0.2,0 -0.2,0.2 v 1.4 h 0.7 c 0.5,0 0.5,-0.1 0.6,-0.5 h 0.2 v 1.3 h -0.2 C 169.2,258 169.2,258 168.7,258 H 168 v 1.2 c 0,0.4 0.1,0.5 0.5,0.5 h 0.6 c 0.4,0 0.4,-0.1 0.6,-0.2 0.1,-0.1 0.2,-0.4 0.3,-0.6 z"
   id="path20" />
	</g>
</g>
</svg>
