<?xml version="1.0" encoding="UTF-8" standalone="no"?>
<!-- Generator: Adobe Illustrator 28.1.0, SVG Export Plug-In . SVG Version: 6.00 Build 0)  -->

<svg
   version="1.1"
   id="Vrstva_1"
   x="0px"
   y="0px"
   fill="currentColor"
   viewBox="0 0 11.275 12.942968"
   xml:space="preserve"
   sodipodi:docname="logo.svg"
   width="11.275"
   height="12.942968"
   inkscape:version="1.3.2 (091e20e, 2023-11-25, custom)"
   xmlns:inkscape="http://www.inkscape.org/namespaces/inkscape"
   xmlns:sodipodi="http://sodipodi.sourceforge.net/DTD/sodipodi-0.dtd"
   xmlns="http://www.w3.org/2000/svg"
   xmlns:svg="http://www.w3.org/2000/svg"><defs
   id="defs21" /><sodipodi:namedview
   id="namedview21"
   pagecolor="#ffffff"
   bordercolor="#000000"
   borderopacity="0.25"
   inkscape:showpageshadow="2"
   inkscape:pageopacity="0.0"
   inkscape:pagecheckerboard="0"
   inkscape:deskcolor="#d1d1d1"
   inkscape:zoom="11.728571"
   inkscape:cx="5.7978077"
   inkscape:cy="26.473813"
   inkscape:window-width="1920"
   inkscape:window-height="1017"
   inkscape:window-x="-8"
   inkscape:window-y="-8"
   inkscape:window-maximized="1"
   inkscape:current-layer="Vrstva_1" />
<style
   type="text/css"
   id="style1">
	.st0{fill:none;stroke:#000000;stroke-miterlimit:10;}
</style>

<g
   id="g11"
   transform="translate(-139.825,-221.05703)">
	<path
   d="m 141,225.2 v -0.5 h 3.9 c 0.2,0 0.2,0 0.2,-0.2 v -0.6 c 0,-0.1 0,-0.2 -0.2,-0.3 -0.3,-0.2 -0.5,-0.4 -0.6,-0.7 -0.2,-0.6 -0.1,-1.1 0.4,-1.5 0.7,-0.6 1.8,-0.4 2.2,0.5 0.3,0.5 0.1,1.2 -0.4,1.6 -0.1,0.1 -0.2,0.1 -0.3,0.2 -0.1,0 -0.1,0.1 -0.1,0.2 v 0.6 c 0,0.1 0,0.2 0.2,0.2 h 3.9 v 0.5 h -3.8 c -0.2,0 -0.2,0 -0.2,0.2 0,0.9 0,1.9 0.1,2.8 0,1 0,2 0.1,3 0,0.2 0.1,0.5 0.3,0.7 0.2,0.2 0.4,0.2 0.6,0.2 0.3,0 0.6,-0.2 0.8,-0.3 0.2,-0.1 0.4,-0.2 0.6,-0.4 0.3,-0.3 0.4,-0.6 0.3,-1 0,-0.2 -0.1,-0.3 -0.2,-0.4 0.9,-0.4 1.6,-1 2.2,-1.8 0.1,0.2 0.1,0.4 0.1,0.6 0,0.6 -0.2,1.1 -0.4,1.7 -0.1,0.2 -0.2,0.4 -0.3,0.6 -0.1,0 -0.2,0 -0.3,0 -0.1,0 -0.2,0 -0.3,0.2 -0.4,0.6 -0.9,1.1 -1.5,1.5 -0.5,0.3 -1,0.5 -1.5,0.7 -0.3,0.1 -0.6,0.2 -0.9,0.3 -0.1,0 -0.2,0.1 -0.4,0.2 -0.4,-0.3 -0.8,-0.4 -1.2,-0.5 -0.5,-0.2 -1,-0.4 -1.5,-0.7 -0.6,-0.4 -1,-0.9 -1.5,-1.5 -0.1,-0.2 -0.3,-0.2 -0.5,-0.2 0,0 -0.1,0 -0.2,0 0,0 0,-0.1 -0.1,-0.1 -0.2,-0.4 -0.5,-0.9 -0.6,-1.4 -0.1,-0.5 -0.1,-0.9 0,-1.4 0.3,0.4 0.6,0.7 1,1 0.4,0.3 0.8,0.6 1.2,0.7 -0.1,0.2 -0.2,0.3 -0.2,0.4 -0.1,0.3 0,0.5 0.2,0.8 0.2,0.3 0.5,0.5 0.8,0.6 0.2,0.1 0.5,0.2 0.8,0.3 0.2,0 0.5,0 0.7,-0.2 0.2,-0.1 0.2,-0.3 0.2,-0.5 0,-0.2 0,-0.3 0,-0.5 0,-1.2 0,-2.4 0.1,-3.6 0,-0.6 0,-1.2 0,-1.9 0,-0.2 0,-0.2 -0.2,-0.2 l -3.5,0.1 c 0.1,0 0.1,0 0,0 z"
   id="path10" />
</g>

</svg>
